<svg id="グループ_1026" data-name="グループ 1026" xmlns="http://www.w3.org/2000/svg" width="227" height="72" viewBox="0 0 319.806 101.437">
  <g id="グループ_1023" data-name="グループ 1023" transform="translate(0 0)">
    <g id="グループ_1022" data-name="グループ 1022">
      <path id="パス_1571" data-name="パス 1571" d="M626.267,218.677a27.266,27.266,0,0,1-11.762,2.41,29.74,29.74,0,0,1-11.206-2.066,26.214,26.214,0,0,1-8.914-5.854,27.158,27.158,0,0,1-5.917-9.068,32.771,32.771,0,0,1,.035-23.416,25.986,25.986,0,0,1,15.054-14.692,31.321,31.321,0,0,1,22.081.038,21.259,21.259,0,0,1,7.827,4.983,1.356,1.356,0,0,1-.027,1.868l-6.654,6.882a1.346,1.346,0,0,1-1.973-.087,10.74,10.74,0,0,0-3.722-2.59,15.065,15.065,0,0,0-5.919-1.224,14.539,14.539,0,0,0-6.1,1.262,14.314,14.314,0,0,0-4.771,3.483,15.975,15.975,0,0,0-3.109,5.242,19.1,19.1,0,0,0-1.108,6.62,19.645,19.645,0,0,0,1.108,6.733,15.8,15.8,0,0,0,3.071,5.242,13.77,13.77,0,0,0,4.7,3.4,14.475,14.475,0,0,0,5.993,1.225,13.542,13.542,0,0,0,6.582-1.531,13.191,13.191,0,0,0,3.625-2.849,1.31,1.31,0,0,1,1.916-.128l6.845,6.666a1.354,1.354,0,0,1,.067,1.876A25.173,25.173,0,0,1,626.267,218.677Z" transform="translate(-586.322 -164)" fill="#302d2c"/>
      <path id="パス_1572" data-name="パス 1572" d="M718.094,192.314a31.148,31.148,0,0,1-2.145,11.747,26.864,26.864,0,0,1-5.955,9.106,26.41,26.41,0,0,1-9.064,5.854,32.333,32.333,0,0,1-22.746,0,26.459,26.459,0,0,1-9.023-5.854,26.747,26.747,0,0,1-5.955-9.106,31.114,31.114,0,0,1-2.145-11.747,30.727,30.727,0,0,1,2.145-11.745,25.7,25.7,0,0,1,5.955-8.917,26.383,26.383,0,0,1,9.023-5.661,33.48,33.48,0,0,1,22.746,0,26.341,26.341,0,0,1,9.064,5.661,25.812,25.812,0,0,1,5.955,8.917A30.761,30.761,0,0,1,718.094,192.314Zm-13.538,0a19.18,19.18,0,0,0-1.108-6.58,15.847,15.847,0,0,0-3.071-5.243,14.214,14.214,0,0,0-4.734-3.443,14.565,14.565,0,0,0-6.1-1.262,14.312,14.312,0,0,0-6.066,1.262,14.712,14.712,0,0,0-4.733,3.443,14.936,14.936,0,0,0-3.071,5.243,19.716,19.716,0,0,0-1.073,6.58,19.934,19.934,0,0,0,1.111,6.774,16.175,16.175,0,0,0,3.068,5.317,14.053,14.053,0,0,0,4.7,3.483,14.526,14.526,0,0,0,16.865-3.483,15.848,15.848,0,0,0,3.109-5.317A20,20,0,0,0,704.556,192.314Z" transform="translate(-594.784 -164)" fill="#302d2c"/>
      <path id="パス_1573" data-name="パス 1573" d="M751.485,218.523V166.936a1.3,1.3,0,0,1,1.3-1.3H762.91a1.3,1.3,0,0,1,1.3,1.3v41.482H783.18a1.3,1.3,0,0,1,1.3,1.3v8.809a1.3,1.3,0,0,1-1.3,1.3h-30.4A1.3,1.3,0,0,1,751.485,218.523Z" transform="translate(-605.022 -164.186)" fill="#302d2c"/>
      <path id="パス_1574" data-name="パス 1574" d="M866.324,192.314a31.148,31.148,0,0,1-2.145,11.747,26.851,26.851,0,0,1-5.955,9.106,26.41,26.41,0,0,1-9.064,5.854,32.333,32.333,0,0,1-22.746,0,26.457,26.457,0,0,1-9.023-5.854,26.746,26.746,0,0,1-5.955-9.106,31.115,31.115,0,0,1-2.145-11.747,30.728,30.728,0,0,1,2.145-11.745,25.7,25.7,0,0,1,5.955-8.917,26.382,26.382,0,0,1,9.023-5.661,33.48,33.48,0,0,1,22.746,0,26.341,26.341,0,0,1,9.064,5.661,25.8,25.8,0,0,1,5.955,8.917A30.761,30.761,0,0,1,866.324,192.314Zm-13.538,0a19.181,19.181,0,0,0-1.108-6.58,15.847,15.847,0,0,0-3.071-5.243,14.22,14.22,0,0,0-4.733-3.443,14.572,14.572,0,0,0-6.1-1.262,14.312,14.312,0,0,0-6.066,1.262,14.712,14.712,0,0,0-4.733,3.443,14.95,14.95,0,0,0-3.071,5.243,20.959,20.959,0,0,0,.038,13.354,16.19,16.19,0,0,0,3.068,5.317,14.063,14.063,0,0,0,4.7,3.483,14.526,14.526,0,0,0,16.865-3.483,15.848,15.848,0,0,0,3.109-5.317A20,20,0,0,0,852.786,192.314Z" transform="translate(-611.568 -164)" fill="#302d2c"/>
      <path id="パス_1575" data-name="パス 1575" d="M928.5,219.818a1.239,1.239,0,0,1-1.1-.66l-11.024-20.844h-4.31v20.264a1.24,1.24,0,0,1-1.24,1.24h-9.872a1.24,1.24,0,0,1-1.24-1.24v-51.7a1.24,1.24,0,0,1,1.24-1.24h18.731a33.765,33.765,0,0,1,7.361.8,18.874,18.874,0,0,1,6.434,2.717,14.048,14.048,0,0,1,4.548,5.052,16.2,16.2,0,0,1,1.7,7.806,14.717,14.717,0,0,1-2.886,9.258,15.7,15.7,0,0,1-7.988,5.358l12.582,21.315a1.24,1.24,0,0,1-1.068,1.87Zm-1.265-37.572a5.552,5.552,0,0,0-.782-3.1,5.428,5.428,0,0,0-2.006-1.837,8.611,8.611,0,0,0-2.752-.881,19.86,19.86,0,0,0-2.934-.227h-6.764v12.625h6.02a19.633,19.633,0,0,0,3.2-.269,9.887,9.887,0,0,0,2.972-.956,5.706,5.706,0,0,0,2.194-1.988A6.043,6.043,0,0,0,927.23,182.247Z" transform="translate(-621.805 -164.186)" fill="#302d2c"/>
    </g>
  </g>
  <g id="グループ_1025" data-name="グループ 1025" transform="translate(27.861 79.829)">
    <g id="グループ_1024" data-name="グループ 1024" transform="translate(0 2)">
      <path id="パス_1576" data-name="パス 1576" d="M622,268.113v-11.32H617.74v-2.115h1.249a3.531,3.531,0,0,0,3.418-2.831h2.323v16.265Z" transform="translate(-617.74 -249.776)" fill="#302d2c"/>
      <path id="パス_1577" data-name="パス 1577" d="M635.754,268.076c.385-2.9,1.354-4.635,4.9-7.33,2.3-1.739,2.988-2.63,2.988-4.056A2.512,2.512,0,0,0,641.191,254c-2.169,0-2.231,2.339-2.256,3.542h-2.728c.037-1.448.211-6.015,5.07-6.015a5.067,5.067,0,0,1,5.312,5.168c0,2.608-1.783,4.077-3.827,5.549-2.106,1.515-2.647,2.139-3.311,3.5h7.269v2.339Z" transform="translate(-619.78 -249.739)" fill="#302d2c"/>
      <path id="パス_1578" data-name="パス 1578" d="M678,264.3a10.42,10.42,0,0,1-5.015,3.92l-1.59-2.294a6.9,6.9,0,0,0,5.418-6.818,5.2,5.2,0,0,0-5.2-5.392,32.6,32.6,0,0,1-2.666,9.914c-.646,1.382-1.634,3.253-2.753,3.253-.777,0-4.3-2.005-4.3-5.994a9.434,9.434,0,0,1,9.481-9.446,7.726,7.726,0,0,1,8,8.11A8.54,8.54,0,0,1,678,264.3Zm-11.57-8.578a7.416,7.416,0,0,0-2.15,4.946c0,1.805.988,2.74,1.374,2.74,1.118,0,2.97-5.815,3.4-9.291A6.3,6.3,0,0,0,666.431,255.725Z" transform="translate(-622.74 -249.73)" fill="#302d2c"/>
      <path id="パス_1579" data-name="パス 1579" d="M695.919,250.982c-.218.067-.237.067-.262.155a22.7,22.7,0,0,1-1.224,3.186c.261.112.622.223.622.469a.317.317,0,0,1-.124.222c-.367.357-.367.357-.367.513v13.547H692.11V258.713c-.28.4-.473.668-.727.98l-2.112-1.648a21.99,21.99,0,0,0,4.15-8.534l2.261.825c.367.134.516.246.516.38C696.2,250.892,696.049,250.937,695.919,250.982Zm10.6,18a15.831,15.831,0,0,0-1.013-2.341c-2.684.491-3.224.579-7.909,1.225a2.334,2.334,0,0,0-.839.223c-.237.334-.324.446-.411.446-.174,0-.217-.133-.3-.513l-.56-2.54c.516,0,1.155-.045,2.126-.112A63.821,63.821,0,0,0,699.4,258.8h-3.547v-2.473h12.992V258.8h-6.624c-.732,2.585-1.658,5.036-2.193,6.4,1.609-.134,3.269-.268,4.517-.4a18.545,18.545,0,0,0-1.914-2.941l2.168-1.383a26.672,26.672,0,0,1,4.132,7.153Zm-9.463-16.131v-2.362h10.773v2.362Z" transform="translate(-625.839 -249.511)" fill="#302d2c"/>
      <path id="パス_1580" data-name="パス 1580" d="M721.839,261.846a34.9,34.9,0,0,1-.665,5.036l-2.069-.357a28.021,28.021,0,0,0,.777-5.413l1.653.178c.068,0,.472.067.472.244C722.007,261.646,721.882,261.78,721.839,261.846Zm3.48-1.113c-.062-.446-.106-.646-.15-.847a4.911,4.911,0,0,1-.621.066v9.068h-2.386V260.2c-.5.021-1.292.067-1.789.11-.255.024-.341.067-.385.112-.174.179-.236.246-.323.246-.193,0-.255-.333-.28-.6l-.192-1.984c.41.022.665.045,1.547.045a18.043,18.043,0,0,0,1.267-1.672,14.464,14.464,0,0,0-2.535-2.584L720.721,252c.254.223.428.379.664.6a16.328,16.328,0,0,0,1.5-2.965l1.7.735c.062.021.323.157.323.379a.179.179,0,0,1-.155.2.494.494,0,0,0-.428.334,21.542,21.542,0,0,1-1.547,2.7c.323.356.366.4.5.534a25.712,25.712,0,0,0,1.566-2.74l1.79,1.026c.279.155.317.244.317.31,0,.112-.081.133-.168.157-.217.045-.323.066-.428.222-.454.692-2.157,3.186-3.207,4.59.839-.021.926-.021,1.609-.066-.168-.713-.236-.891-.428-1.515l1.982-.469a20.914,20.914,0,0,1,1.075,4.056Zm.13,4.857a18.068,18.068,0,0,1-.386-4.211l1.765-.312a17.368,17.368,0,0,0,.491,3.989Zm6.3-5.036a.376.376,0,0,0-.168.291c-.043,5.146-1.354,6.839-4.194,8.289l-2.106-1.939c3.373-1.069,3.908-3.009,3.759-7.287l2.131.112c.472.022.709.089.709.313C731.88,260.4,731.836,260.465,731.749,260.554Zm4.623-.422c-.236-.446-.472-.847-.751-1.271-1.119.133-6.922.646-7.139.713-.087.045-.447.333-.56.333-.211,0-.3-.267-.323-.513l-.279-2.182c.584.043,1.23.043,2,.043.385-.913.752-1.848,1.1-2.784h-3.38v-2.183H731v-2.629l2.342.112c.479.022.777.089.777.312,0,.089-.062.134-.192.223-.305.2-.324.223-.324.29v1.693h4.43v2.183h-4.9c-.454.936-.752,1.582-1.4,2.741,1.138-.045,1.808-.066,2.666-.178-.279-.357-.559-.713-.858-1.07l1.87-1.426a20.219,20.219,0,0,1,3.051,4.189Zm-.236,8.8h-2.106a1.528,1.528,0,0,1-1.634-1.581v-7.53l2.106.112c.28.021.752.066.752.356,0,.112-.062.178-.211.29-.261.2-.279.223-.279.289v4.858a.628.628,0,0,0,.664.691c.6,0,.733-.246.988-2.205l2,1.046C738.242,267.707,737.813,268.931,736.135,268.931Z" transform="translate(-629.217 -249.525)" fill="#302d2c"/>
      <path id="パス_1581" data-name="パス 1581" d="M763.454,268.673H753.2c-1.554,0-2.734-.8-2.734-2.183v-9.714c-.279.2-.56.379-.8.534l-2.044-1.915a13.367,13.367,0,0,0,4.474-3.521,14.585,14.585,0,0,0,1.5-2.16l2.194.155c.41.023.627.134.627.357a.415.415,0,0,1-.261.312,1.575,1.575,0,0,0-.341.2l-.13.267h6.213l.907.936c-.627.691-1.615,1.8-2.647,3.119h5.12v8.088h-2.473v-.735h-9.978v2.829a1.138,1.138,0,0,0,1.249,1.07H762.1c2.112,0,2.821-.668,2.839-2.7l2.348,1.137C766.66,267.715,765.865,268.673,763.454,268.673Zm-9.134-15.707a20.676,20.676,0,0,1-1.876,2.094h4.648c.541-.69,1.18-1.536,1.616-2.094Zm2.275,4.366h-3.759v3.009H756.6Zm6.219,0h-3.722v3.009h3.722Z" transform="translate(-632.447 -249.534)" fill="#302d2c"/>
      <path id="パス_1582" data-name="パス 1582" d="M780.813,263.076a62.318,62.318,0,0,1,5.374-3.41l-.019-2.873a20.367,20.367,0,0,1-3.268.112l-.324-2.518a16.6,16.6,0,0,0,2.107.113c.54,0,.864-.024,1.484-.067-.025-2.518-.025-2.718-.044-4.168l2.386.336c.6.089.6.244.6.356,0,.089-.323.357-.366.424-.087.134-.149,2.316-.168,2.74a13.233,13.233,0,0,0,3.3-1.159v2.54a18.206,18.206,0,0,1-3.348.959l-.025,2.205a11.5,11.5,0,0,1,3.311-.513A4.864,4.864,0,0,1,797,263.231c0,2.742-1.721,4.9-4.02,4.9-2.368,0-2.666-1.539-2.971-3.165l2-.823c.261.913.428,1.492,1.1,1.492.771,0,1.653-.8,1.653-2.362a2.874,2.874,0,0,0-2.989-2.964,9.4,9.4,0,0,0-3.268.779c-.019,3.544-.019,3.944-.043,6.662l-2.281.936c-.92-1.025-1.46-1.626-3.417-3.765-.3.289-.342.311-.646.646Zm5.374-.779a22.38,22.38,0,0,0-1.957,1.359,18.715,18.715,0,0,0,1.957,2.094Zm11.054-3.988A12.315,12.315,0,0,0,793,255.768l1.4-1.961a15.626,15.626,0,0,1,4.238,2.518Z" transform="translate(-636.204 -249.596)" fill="#302d2c"/>
      <path id="パス_1583" data-name="パス 1583" d="M809.939,263.076a62.271,62.271,0,0,1,5.375-3.41l-.019-2.873a20.367,20.367,0,0,1-3.268.112l-.324-2.518a16.585,16.585,0,0,0,2.106.113c.541,0,.864-.024,1.485-.067-.025-2.518-.025-2.718-.043-4.168l2.386.336c.6.089.6.244.6.356,0,.089-.323.357-.366.424-.087.134-.149,2.316-.168,2.74a13.233,13.233,0,0,0,3.3-1.159v2.54a18.2,18.2,0,0,1-3.348.959l-.025,2.205a11.491,11.491,0,0,1,3.311-.513,4.864,4.864,0,0,1,5.182,5.079c0,2.742-1.721,4.9-4.021,4.9-2.367,0-2.666-1.539-2.97-3.165l2-.823c.262.913.429,1.492,1.1,1.492.771,0,1.653-.8,1.653-2.362a2.873,2.873,0,0,0-2.988-2.964,9.391,9.391,0,0,0-3.268.779c-.019,3.544-.019,3.944-.044,6.662l-2.28.936c-.92-1.025-1.46-1.626-3.418-3.765-.3.289-.341.311-.646.646Zm5.375-.779a22.242,22.242,0,0,0-1.957,1.359,18.7,18.7,0,0,0,1.957,2.094Zm11.054-3.988a12.313,12.313,0,0,0-4.238-2.541l1.4-1.961a15.622,15.622,0,0,1,4.237,2.518Z" transform="translate(-639.502 -249.596)" fill="#302d2c"/>
      <path id="パス_1584" data-name="パス 1584" d="M846.777,256.388a64,64,0,0,1-4.43,11.854l-2.621-.825a37.807,37.807,0,0,0,4.367-10.6,27.626,27.626,0,0,1-3.206.267l-.174-2.318a8.346,8.346,0,0,0,1.746.134,14.988,14.988,0,0,0,2.125-.134,27.984,27.984,0,0,0,.733-4.723l2.646.646c.043,0,.535.112.535.357,0,.155-.062.223-.254.312-.28.134-.324.155-.367.378-.192,1-.366,1.8-.515,2.429a16.477,16.477,0,0,0,3.417-1.313v2.472A25.152,25.152,0,0,1,846.777,256.388Zm5.443,12.01c-3.871,0-5.53-1.116-5.53-3.387a5.281,5.281,0,0,1,.261-1.6l2.132.467a4.317,4.317,0,0,0-.087.824.789.789,0,0,0,.255.669c.6.579,2.236.6,2.734.6a13.711,13.711,0,0,0,3.784-.49l.217,2.583A20,20,0,0,1,852.22,268.4Zm.472-8.846a25.52,25.52,0,0,0-3.224.246v-2.339c1.118-.09,2.193-.157,3.331-.157a23.89,23.89,0,0,1,2.839.134V259.8A22.435,22.435,0,0,0,852.691,259.552Z" transform="translate(-642.874 -249.571)" fill="#302d2c"/>
      <path id="パス_1585" data-name="パス 1585" d="M872.516,267.134a2.325,2.325,0,0,1-1.591-.735c-1.5-1.516-2.193-4.123-2.193-8.355a22.5,22.5,0,0,1,.646-5.792l2.367.668c.15.045.491.155.491.423,0,.245-.255.335-.622.469a23.916,23.916,0,0,0-.41,4.967c0,4.345,1.031,5.148,1.466,5.148.771,0,1.653-2.362,2.064-3.431l1.782,1.648C875.337,264.772,874.262,267.134,872.516,267.134Zm10.9-3.966a21.155,21.155,0,0,0-3.162-9.047l2.218-1.114A19.317,19.317,0,0,1,886,262.476Z" transform="translate(-646.158 -249.821)" fill="#302d2c"/>
      <path id="パス_1586" data-name="パス 1586" d="M904.363,268.7l-1.1-2.385c1.205.045,3.914.179,5.915-1a3.718,3.718,0,0,0,1.957-3.342c0-1.872-1.4-2.874-3.206-2.874-3.182,0-5.462,2.495-7.506,4.724l-1.977-1.8a68.779,68.779,0,0,0,8.3-8.8,23.335,23.335,0,0,1-4.84.513l-.857-2.562a15.058,15.058,0,0,0,2.318.177,20.237,20.237,0,0,0,3.809-.446,13.655,13.655,0,0,0,2.622-.756l1.484,1.827a58.369,58.369,0,0,0-5.163,5.592,7.594,7.594,0,0,1,2.429-.422,4.868,4.868,0,0,1,5.058,5.1C913.608,268.208,906.941,268.544,904.363,268.7Z" transform="translate(-649.523 -249.582)" fill="#302d2c"/>
    </g>
  </g>
</svg>
