<svg xmlns="http://www.w3.org/2000/svg" width="134" height="134" viewBox="0 0 134 134">
  <path id="パス_265" data-name="パス 265" d="M515.012,483.373Q495.638,464,466.578,464c-17.759,0-35.518,4.843-48.434,17.759S402,512.434,402,531.807c0,17.759,4.843,32.289,17.759,45.2S448.819,598,466.578,598c19.373,0,35.518-8.072,48.434-19.373C526.313,565.71,536,549.566,536,531.807,536,512.434,526.313,494.675,515.012,483.373Zm-46.819,77.494c-16.144,0-30.674-12.916-30.674-29.06a30.654,30.654,0,0,1,30.674-30.675c17.759,0,30.675,12.916,30.675,30.675C498.867,547.951,485.951,560.867,468.193,560.867Z" transform="translate(-402 -464)" fill="#e4bdbe"/>
</svg>
