<svg xmlns="http://www.w3.org/2000/svg" width="125.092" height="123.824" viewBox="0 0 125.092 123.824">
  <path id="パス_278" data-name="パス 278" d="M462.836,562.348c5.621,9.725,16.045,15.532,25.747,21.129,9.4,5.434,19.52,7.836,31.181,7.836,11.638,0,23.788,1.143,33.187-4.314,9.7-5.621,15.182-16.652,20.78-26.354,5.434-9.4,7.906-19.52,7.906-31.158s.583-23.508-4.851-32.93c-5.621-9.7-14.809-17.794-24.511-23.415-9.4-5.434-20.873-5.5-32.51-5.5-11.661,0-23.671-.863-33.07,4.571a68.646,68.646,0,0,0-24.254,24.185c-5.434,9.4-5.877,21.456-5.877,33.093S457.379,552.95,462.836,562.348Zm57.535-60.636A30.68,30.68,0,1,1,489.7,532.38,30.681,30.681,0,0,1,520.371,501.712Z" transform="translate(-456.563 -467.589)" fill="#b63827"/>
</svg>
