<svg xmlns="http://www.w3.org/2000/svg" width="121.795" height="121.972" viewBox="0 0 121.795 121.972">
  <path id="パス_287" data-name="パス 287" d="M615.68,624.558c-11.169,10.992-26.77,16.665-43.789,16.665s-33.152-5.141-44.5-16.488c-11.169-11.169-14.892-27.3-14.892-44.321,0-16.842,3.723-33.152,14.715-44.5,11.169-11.169,27.656-16.665,44.676-16.665s34.039,4.787,45.03,16.133c11.346,10.992,17.374,28.188,17.374,45.031C634.3,597.433,626.672,613.211,615.68,624.558Zm-41.662-71.269a30.583,30.583,0,1,0,30.848,30.67A30.643,30.643,0,0,0,574.018,553.289Z" transform="translate(-512.5 -519.25)" fill="#d37024"/>
</svg>
