<svg xmlns="http://www.w3.org/2000/svg" width="137.205" height="133.727" viewBox="0 0 137.205 133.727">
  <path id="パス_280" data-name="パス 280" d="M361.031,551.062c6-10.26,14.173-17.737,24.433-23.476,9.825-5.913,20.346-10.086,32.519-10.086,12.26,0,22.694,4.347,32.519,10.26,10.173,5.913,19.216,12.695,25.215,22.954,5.739,9.912,9.738,21.042,9.738,33.214a67,67,0,0,1-9.043,33.736c-6,10.26-13.3,20.694-23.563,26.78-9.912,5.565-22.607,6.782-34.866,6.782-12.173,0-24.346-1.913-34.345-7.651-10.173-6.086-17.477-16.172-23.389-26.085-5.739-10.086-12-21.215-12-33.562C348.25,571.756,355.293,560.974,361.031,551.062Zm55.821,66.776a30.606,30.606,0,1,0-30.606-30.606A30.6,30.6,0,0,0,416.852,617.839Z" transform="translate(-348.25 -517.5)" fill="#27231d"/>
</svg>
