<svg xmlns="http://www.w3.org/2000/svg" width="124.844" height="123.603" viewBox="0 0 124.844 123.603">
  <path id="パス_281" data-name="パス 281" d="M468.9,665.707c-5.6,9.665-16.016,15.463-25.705,21.086-9.388,5.422-19.48,7.807-31.115,7.807s-23.76,1.13-33.148-4.293c-9.677-5.6-15.137-16.643-20.735-26.308-5.435-9.389-7.87-19.48-7.87-31.1s-.6-23.471,4.832-32.86c5.6-9.715,14.773-17.8,24.45-23.4,9.389-5.422,20.848-5.5,32.471-5.5s23.622-.854,33.01,4.594A68.477,68.477,0,0,1,469.3,599.862c5.435,9.389,5.849,21.413,5.849,33.036S474.345,656.294,468.9,665.707Zm-53.068-63.46a30.651,30.651,0,1,0,30.638,30.676A30.672,30.672,0,0,0,415.83,602.247Z" transform="translate(-350.303 -571.096)" fill="#7d9c27"/>
</svg>
