<svg xmlns="http://www.w3.org/2000/svg" width="137.68" height="133.422" viewBox="0 0 137.68 133.422">
  <path id="パス_286" data-name="パス 286" d="M21.291,18.452C32.646,5.678,51.1,0,69.55,0s36.9,5.678,48.259,18.452c12.774,11.355,19.871,29.807,19.871,48.259s-9.936,34.065-22.71,46.84C103.615,124.905,88,133.422,69.55,133.422A72.777,72.777,0,0,1,21.291,114.97C8.516,102.2,0,85.163,0,66.711S8.516,29.807,21.291,18.452Zm51.1,78.066C88,96.518,102.2,82.324,102.2,66.711S88,36.9,72.388,36.9a29.807,29.807,0,0,0,0,59.614Z" fill="#29381e"/>
</svg>
