<svg id="コンポーネント_32_20" data-name="コンポーネント 32 – 20" xmlns="http://www.w3.org/2000/svg" width="104.683" height="121.63" viewBox="0 0 104.683 121.63">
  <g id="グループ_8" data-name="グループ 8">
    <path id="パス_1410" data-name="パス 1410" d="M250.11,473.576c-3.114,0-4.984-1.04-7.421-4.4-2.4-3.323-1.549-5.973,4.131-7.187l22.3-5.158c5.483-1.126,9.023-3.146,13.407,2.579,3.17,4.139,2.466,6.578-2.483,7.732l-28,6.22A10.1,10.1,0,0,1,250.11,473.576Z" transform="translate(-241.154 -436.455)" fill="#3e3a39"/>
    <path id="パス_1411" data-name="パス 1411" d="M306.034,470.746c11.717,4.844,16.593,13.828,16.593,21.682,0,10.87-9.824,20.238-26.275,25.056a6.841,6.841,0,0,1-8.628-5.144,7.123,7.123,0,0,1,5.107-8.1c11.054-3.311,16.018-8.427,16.092-11.808.072-3.324-2.193-5.654-4.859-7.8a2.723,2.723,0,0,1-1-2.579,85.193,85.193,0,0,1-.132-10.065C303.177,470.478,305.051,470.339,306.034,470.746Z" transform="translate(-217.944 -428.908)" fill="#3e3a39"/>
    <path id="パス_1412" data-name="パス 1412" d="M307.241,479.228c-.248,1.509-1.921,1.5-2.725,1.395a109.191,109.191,0,0,0-12.814-1.147c-22.435,0-36.752,8.669-36.752,14.637s14.317,14.637,36.752,14.637c1.661,0,3.29-.048,4.9-.146a6.884,6.884,0,0,1,7.227,7.561,7.142,7.142,0,0,1-6.874,6.145c-1.731.095-3.5.144-5.25.144-28.764,0-50.457-12.184-50.457-28.342s21.693-28.34,50.457-28.34a61.012,61.012,0,0,1,11.9.724c1.518.31,2.651.942,2.849,2.109A51.984,51.984,0,0,1,307.241,479.228Z" transform="translate(-241.246 -431.311)" fill="#3e3a39"/>
    <path id="パス_1413" data-name="パス 1413" d="M293.525,528.387a7.043,7.043,0,0,1-6-3.362L249.37,463.081c-2.057-3.339-1.731-6.775,3.248-8.7,3.853-1.492,6.91-1.321,8.747,1.192l38.15,61.942a7.151,7.151,0,0,1-2.271,9.8A6.987,6.987,0,0,1,293.525,528.387Z" transform="translate(-237.759 -437.518)" fill="#3e3a39"/>
    <g id="グループ_7" data-name="グループ 7" transform="translate(63.246)">
      <path id="パス_1424" data-name="パス 1424" d="M12.163,0A12.163,12.163,0,1,1,0,12.163,12.163,12.163,0,0,1,12.163,0Z" fill="#3e3a39"/>
      <circle id="楕円形_301" data-name="楕円形 301" cx="3.938" cy="3.938" r="3.938" transform="translate(8.224 8.224)" fill="#f4f4f4" stroke="#f4f4f4" stroke-width="1"/>
    </g>
    <path id="パス_1414" data-name="パス 1414" d="M300.561,468.478a197.3,197.3,0,0,0-.084,22.31c.335,7.436.818,14.873,1.793,22.309a8.181,8.181,0,0,1-16.224,2.127,8.533,8.533,0,0,1,0-2.127c.975-7.436,1.458-14.873,1.793-22.309a197.3,197.3,0,0,0-.086-22.31,6.42,6.42,0,1,1,12.808-.914A6.869,6.869,0,0,1,300.561,468.478Z" transform="translate(-218.75 -433.408)" fill="#3e3a39"/>
  </g>
  <g id="グループ_11" data-name="グループ 11" transform="translate(18.295 97.874)">
    <g id="グループ_9" data-name="グループ 9">
      <path id="パス_1415" data-name="パス 1415" d="M280.505,520.951h-2.394a.22.22,0,0,1-.219-.219v-7.546a.221.221,0,0,1,.219-.219h2.394a.219.219,0,0,1,.218.219v7.546A.218.218,0,0,1,280.505,520.951Zm.585-11.155a1.784,1.784,0,0,1-.565,1.25,1.738,1.738,0,0,1-1.223.482,1.759,1.759,0,0,1-.9-.234,1.708,1.708,0,0,1-.642-.642,1.762,1.762,0,0,1-.236-.9,1.741,1.741,0,0,1,.482-1.222,1.774,1.774,0,0,1,1.252-.565,1.807,1.807,0,0,1,1.831,1.831Z" transform="translate(-241.296 -507.966)" fill="#3e3a39"/>
      <path id="パス_1416" data-name="パス 1416" d="M286.994,514.5a.377.377,0,0,1,.323-.365,2.314,2.314,0,0,0,.876-.268,1.133,1.133,0,0,0,.64-.966,1.148,1.148,0,0,0-.586-1.02,5.009,5.009,0,0,0-2.2-.231.41.41,0,0,0-.388.412V519.8a.413.413,0,0,1-.413.413h-2.266a.413.413,0,0,1-.413-.413v-9.644a.814.814,0,0,1,.815-.813h4.763a4.049,4.049,0,0,1,2.212.549,3.293,3.293,0,0,1,1.241,1.333,3.4,3.4,0,0,1,.382,1.491,2.8,2.8,0,0,1-.319,1.392,2.513,2.513,0,0,1-.67.827,2.832,2.832,0,0,1-.55.3.211.211,0,0,0-.035.37,3.1,3.1,0,0,1,.586.552,8.043,8.043,0,0,1,1,1.7l.669,1.437a.65.65,0,0,1-.589.924h-2.235a.413.413,0,0,1-.377-.246l-.745-1.683a7.94,7.94,0,0,0-.848-1.548,2.054,2.054,0,0,0-.637-.585.454.454,0,0,1-.23-.367Z" transform="translate(-238.761 -507.275)" fill="#3e3a39"/>
      <path id="パス_1417" data-name="パス 1417" d="M302.855,514.85a5.712,5.712,0,0,1-.7,2.8,5.057,5.057,0,0,1-2.089,2.032,7.007,7.007,0,0,1-3.38.753,6.869,6.869,0,0,1-3.412-.785,5.083,5.083,0,0,1-2.074-2.062,5.879,5.879,0,0,1,0-5.478,5.044,5.044,0,0,1,2.074-2.056,6.928,6.928,0,0,1,3.416-.78,7.555,7.555,0,0,1,2.686.446,5.382,5.382,0,0,1,1.942,1.213,5.1,5.1,0,0,1,1.153,1.78A5.917,5.917,0,0,1,302.855,514.85Zm-3.341,0a3.355,3.355,0,0,0-.18-1.118,2.412,2.412,0,0,0-.546-.878,2.53,2.53,0,0,0-.89-.58,3.3,3.3,0,0,0-1.216-.207,2.791,2.791,0,1,0,0,5.576,3.09,3.09,0,0,0,1.536-.356,2.384,2.384,0,0,0,.965-.987A3.078,3.078,0,0,0,299.514,514.85Z" transform="translate(-234.762 -507.308)" fill="#3e3a39"/>
      <path id="パス_1418" data-name="パス 1418" d="M256.031,520.261h-2.393a.219.219,0,0,1-.219-.219V509.557a.218.218,0,0,1,.219-.218h2.393a.218.218,0,0,1,.219.218v10.484A.219.219,0,0,1,256.031,520.261Z" transform="translate(-253.419 -507.275)" fill="#3e3a39"/>
      <path id="パス_1419" data-name="パス 1419" d="M263.022,514.5a.378.378,0,0,1,.325-.365,2.323,2.323,0,0,0,.876-.268,1.133,1.133,0,0,0,.64-.966,1.147,1.147,0,0,0-.588-1.02,5,5,0,0,0-2.2-.231.41.41,0,0,0-.386.412V519.8a.413.413,0,0,1-.413.413h-2.266a.413.413,0,0,1-.413-.413v-9.644a.813.813,0,0,1,.813-.813h4.764a4.044,4.044,0,0,1,2.211.549,3.287,3.287,0,0,1,1.243,1.333,3.418,3.418,0,0,1,.382,1.491,2.814,2.814,0,0,1-.319,1.392,2.512,2.512,0,0,1-.67.827,2.831,2.831,0,0,1-.55.3.211.211,0,0,0-.035.37,3.1,3.1,0,0,1,.586.552,8.108,8.108,0,0,1,1,1.7l.669,1.437a.65.65,0,0,1-.589.924h-2.235a.411.411,0,0,1-.377-.246l-.745-1.683a7.94,7.94,0,0,0-.848-1.548,2.054,2.054,0,0,0-.637-.585.459.459,0,0,1-.231-.367Z" transform="translate(-250.816 -507.275)" fill="#3e3a39"/>
      <path id="パス_1420" data-name="パス 1420" d="M278.994,514.85a5.713,5.713,0,0,1-.7,2.8,5.057,5.057,0,0,1-2.089,2.032,7.007,7.007,0,0,1-3.38.753,6.879,6.879,0,0,1-3.413-.785,5.1,5.1,0,0,1-2.074-2.062,5.89,5.89,0,0,1,0-5.478,5.039,5.039,0,0,1,2.075-2.056,6.924,6.924,0,0,1,3.416-.78,7.554,7.554,0,0,1,2.686.446,5.382,5.382,0,0,1,1.942,1.213,5.1,5.1,0,0,1,1.153,1.78A5.917,5.917,0,0,1,278.994,514.85Zm-3.342,0a3.32,3.32,0,0,0-.18-1.118,2.388,2.388,0,0,0-.544-.878,2.523,2.523,0,0,0-.891-.58,3.288,3.288,0,0,0-1.214-.207,2.791,2.791,0,1,0,0,5.576,3.09,3.09,0,0,0,1.536-.356,2.384,2.384,0,0,0,.965-.987A3.1,3.1,0,0,0,275.652,514.85Z" transform="translate(-246.762 -507.308)" fill="#3e3a39"/>
    </g>
    <g id="グループ_10" data-name="グループ 10" transform="translate(19.829 16.221)">
      <path id="パス_1421" data-name="パス 1421" d="M274.941,522.524a3.871,3.871,0,0,1-.473,1.891,3.42,3.42,0,0,1-1.411,1.371,4.739,4.739,0,0,1-2.281.508,4.639,4.639,0,0,1-2.3-.529,3.454,3.454,0,0,1-1.4-1.393,3.974,3.974,0,0,1,0-3.7,3.409,3.409,0,0,1,1.4-1.387,4.675,4.675,0,0,1,2.307-.528,5.081,5.081,0,0,1,1.813.3,3.628,3.628,0,0,1,1.31.818,3.456,3.456,0,0,1,.779,1.2A3.95,3.95,0,0,1,274.941,522.524Zm-2.256,0a2.195,2.195,0,0,0-.122-.754,1.6,1.6,0,0,0-.368-.594,1.693,1.693,0,0,0-.6-.391,2.2,2.2,0,0,0-.821-.141,1.885,1.885,0,1,0,0,3.765,2.086,2.086,0,0,0,1.037-.241,1.6,1.6,0,0,0,.651-.667A2.075,2.075,0,0,0,272.685,522.524Z" transform="translate(-266.613 -518.759)" fill="#3e3a39"/>
      <path id="パス_1422" data-name="パス 1422" d="M280.971,520.61H278.9a.312.312,0,0,0-.311.311v4.933a.31.31,0,0,1-.31.311h-1.587a.312.312,0,0,1-.311-.311v-4.933a.31.31,0,0,0-.31-.311H274a.309.309,0,0,1-.31-.31v-1.163a.31.31,0,0,1,.31-.311h6.966a.312.312,0,0,1,.311.311V520.3A.31.31,0,0,1,280.971,520.61Z" transform="translate(-263.051 -518.725)" fill="#3e3a39"/>
      <path id="パス_1423" data-name="パス 1423" d="M288.1,526.165h-1.58a.308.308,0,0,1-.289-.2l-.476-1.183a.173.173,0,0,0-.162-.11H282.64a.173.173,0,0,0-.161.108l-.485,1.187a.313.313,0,0,1-.287.192h-1.583a.31.31,0,0,1-.283-.436l2.97-6.718a.313.313,0,0,1,.284-.185h2.042a.31.31,0,0,1,.284.185l2.961,6.718A.311.311,0,0,1,288.1,526.165Zm-2.992-3-.818-2.036a.175.175,0,0,0-.325,0l-.825,2.036a.175.175,0,0,0,.162.24h1.643A.176.176,0,0,0,285.106,523.16Z" transform="translate(-259.974 -518.725)" fill="#3e3a39"/>
    </g>
  </g>
</svg>
