<svg xmlns="http://www.w3.org/2000/svg" width="1365.971" height="445.937" viewBox="0 0 1365.971 445.937">
  <g id="グループ_1050" data-name="グループ 1050" transform="translate(0.322 0)">
    <g id="グループ_1217" data-name="グループ 1217">
      <path id="パス_1600" data-name="パス 1600" d="M1481.864,1036.147a34.5,34.5,0,1,1-34.5,34.5A34.5,34.5,0,0,1,1481.864,1036.147Zm0,48.056a13.558,13.558,0,1,0-13.558-13.558A13.558,13.558,0,0,0,1481.864,1084.2Z" transform="translate(-1177.091 -1036.147)" fill="#84ab3a"/>
      <path id="パス_1601" data-name="パス 1601" d="M207.258,1271.647c61.28-4.908,76.625-29.777,77.154-48.254s-9.8-30.038-7.921-45.6S292.451,1156,304.787,1156c14.391,0,25.653,10.565,26.445,24.147s-6.521,22.964-6.521,41.42,14.53,39.618,41.736,42.246l0,0c96.409,8.232,200.465,10.037,312.3-13.321,286.174-59.769,440.407,86.222,686.916-59.194v325.643L.014,1515.006-.309,1238.05C50.526,1263.083,145.978,1276.555,207.258,1271.647Z" transform="translate(-0.014 -1071.007)" fill="#84ab3a"/>
    </g>
  </g>
</svg>
