<svg xmlns="http://www.w3.org/2000/svg" width="267.996" height="71.751" viewBox="0 0 267.996 71.751">
  <g id="グループ_1021" data-name="グループ 1021" transform="translate(0)">
    <g id="グループ_1018" data-name="グループ 1018" transform="translate(0 0)">
      <g id="グループ_1017" data-name="グループ 1017">
        <path id="パス_1554" data-name="パス 1554" d="M78.872,203.472V188H64.394v15.475a.587.587,0,0,1-.587.588H56.012a.587.587,0,0,1-.587-.588V166.227a.587.587,0,0,1,.587-.588h7.794a.587.587,0,0,1,.587.588v13.955H78.872V166.227a.588.588,0,0,1,.588-.588h7.8a.587.587,0,0,1,.588.588v37.245a.587.587,0,0,1-.588.588h-7.8A.588.588,0,0,1,78.872,203.472Z" transform="translate(-55.425 -164.608)" fill="#fff"/>
        <path id="パス_1555" data-name="パス 1555" d="M173.529,184.079a22.078,22.078,0,0,1-1.521,8.329,19.038,19.038,0,0,1-4.223,6.458,18.728,18.728,0,0,1-6.427,4.152,22.931,22.931,0,0,1-16.131,0,18.764,18.764,0,0,1-6.4-4.152,18.973,18.973,0,0,1-4.223-6.458,22.053,22.053,0,0,1-1.521-8.329,21.8,21.8,0,0,1,1.521-8.33,18.238,18.238,0,0,1,4.223-6.322,18.72,18.72,0,0,1,6.4-4.015,23.754,23.754,0,0,1,16.131,0,18.688,18.688,0,0,1,6.427,4.015,18.3,18.3,0,0,1,4.223,6.322A21.819,21.819,0,0,1,173.529,184.079Zm-9.6,0a13.6,13.6,0,0,0-.785-4.667,11.241,11.241,0,0,0-2.178-3.718,10.067,10.067,0,0,0-3.356-2.442,10.331,10.331,0,0,0-4.328-.9,10.15,10.15,0,0,0-4.3.9,10.415,10.415,0,0,0-3.356,2.442,10.6,10.6,0,0,0-2.178,3.718,14.861,14.861,0,0,0,.027,9.469,11.474,11.474,0,0,0,2.176,3.772,9.969,9.969,0,0,0,3.331,2.469,10.3,10.3,0,0,0,11.959-2.469,11.232,11.232,0,0,0,2.2-3.772A14.172,14.172,0,0,0,163.928,184.079Z" transform="translate(-84.249 -164)" fill="#fff"/>
        <path id="パス_1556" data-name="パス 1556" d="M260.066,204.06h-7.5a.9.9,0,0,1-.868-.657l-7.159-25.337h-.158L237.228,203.4a.9.9,0,0,1-.868.657h-7.547a.9.9,0,0,1-.869-.663l-10.05-36.618a.9.9,0,0,1,.87-1.14h7.752a.9.9,0,0,1,.879.7l5.714,24.861h.158l6.434-24.884a.9.9,0,0,1,.873-.676h7.942a.9.9,0,0,1,.872.674l6.487,24.886h.158l5.816-24.864a.9.9,0,0,1,.878-.7h7.439a.9.9,0,0,1,.869,1.141l-10.1,36.618A.9.9,0,0,1,260.066,204.06Z" transform="translate(-115.713 -164.608)" fill="#fff"/>
        <path id="パス_1557" data-name="パス 1557" d="M368.674,173.563v29.473a1.025,1.025,0,0,1-1.025,1.024h-6.92a1.024,1.024,0,0,1-1.024-1.024V173.563h-9.467a1.025,1.025,0,0,1-1.025-1.025v-5.874a1.025,1.025,0,0,1,1.025-1.024h27.9a1.024,1.024,0,0,1,1.024,1.024v5.874a1.025,1.025,0,0,1-1.024,1.025Z" transform="translate(-164.464 -164.608)" fill="#fff"/>
        <path id="パス_1558" data-name="パス 1558" d="M457.724,184.079a22.09,22.09,0,0,1-1.521,8.329,19.047,19.047,0,0,1-4.223,6.458,18.731,18.731,0,0,1-6.427,4.152,22.929,22.929,0,0,1-16.13,0,18.758,18.758,0,0,1-6.4-4.152,18.954,18.954,0,0,1-4.223-6.458,22.041,22.041,0,0,1-1.521-8.329,21.783,21.783,0,0,1,1.521-8.33,18.22,18.22,0,0,1,4.223-6.322,18.714,18.714,0,0,1,6.4-4.015,23.752,23.752,0,0,1,16.13,0,18.69,18.69,0,0,1,6.427,4.015,18.308,18.308,0,0,1,4.223,6.322A21.831,21.831,0,0,1,457.724,184.079Zm-9.6,0a13.605,13.605,0,0,0-.786-4.667,11.242,11.242,0,0,0-2.178-3.718,10.067,10.067,0,0,0-3.356-2.442,10.329,10.329,0,0,0-4.328-.9,10.15,10.15,0,0,0-4.3.9,10.428,10.428,0,0,0-3.356,2.442,10.614,10.614,0,0,0-2.178,3.718,14.872,14.872,0,0,0,.027,9.469,11.475,11.475,0,0,0,2.176,3.772,9.975,9.975,0,0,0,3.331,2.469,10.3,10.3,0,0,0,11.959-2.469,11.222,11.222,0,0,0,2.2-3.772A14.172,14.172,0,0,0,448.123,184.079Z" transform="translate(-189.728 -164)" fill="#fff"/>
      </g>
    </g>
    <g id="グループ_1020" data-name="グループ 1020" transform="translate(27.081 58.21)">
      <g id="グループ_1019" data-name="グループ 1019">
        <path id="パス_1559" data-name="パス 1559" d="M101.172,262.717a1.646,1.646,0,0,1-1.128-.521c-1.066-1.075-1.555-2.923-1.555-5.925a15.961,15.961,0,0,1,.458-4.108l1.678.474c.106.032.348.111.348.3,0,.174-.181.238-.441.333a16.965,16.965,0,0,0-.291,3.523c0,3.081.731,3.65,1.039,3.65.546,0,1.172-1.675,1.463-2.434l1.265,1.169C103.173,261.042,102.411,262.717,101.172,262.717Zm7.733-2.812a15,15,0,0,0-2.243-6.416l1.573-.79a13.693,13.693,0,0,1,2.5,6.715Z" transform="translate(-98.489 -250.677)" fill="#fff"/>
        <path id="パス_1560" data-name="パス 1560" d="M132.4,263.214l-.78-1.69a7.945,7.945,0,0,0,4.2-.711,2.639,2.639,0,0,0,1.388-2.371,2.03,2.03,0,0,0-2.274-2.037c-2.256,0-3.872,1.769-5.323,3.349l-1.4-1.28a48.691,48.691,0,0,0,5.887-6.241,16.512,16.512,0,0,1-3.432.363l-.608-1.816a10.775,10.775,0,0,0,1.644.125,14.347,14.347,0,0,0,2.7-.316,9.72,9.72,0,0,0,1.859-.536l1.053,1.295a41.46,41.46,0,0,0-3.662,3.966,5.394,5.394,0,0,1,1.723-.3,3.452,3.452,0,0,1,3.586,3.617C138.955,262.866,134.227,263.1,132.4,263.214Z" transform="translate(-109.518 -249.894)" fill="#fff"/>
        <path id="パス_1561" data-name="パス 1561" d="M167.156,251.787c-.229.015-.26.047-.472.284a19.86,19.86,0,0,1-2.516,2.465v8.421h-1.908v-6.951a27.035,27.035,0,0,1-3.842,2.242l-1.326-1.405a23.764,23.764,0,0,0,8.843-6.715l1.326,1.137c.062.047.26.253.26.38C167.522,251.755,167.46,251.771,167.156,251.787Z" transform="translate(-120.24 -249.922)" fill="#fff"/>
        <path id="パス_1562" data-name="パス 1562" d="M195.551,263.061v-.68h-6.935V263H186.8V252.664h10.566v10.4Zm0-8.611h-6.935V260.6h6.935Z" transform="translate(-131.266 -250.863)" fill="#fff"/>
        <path id="パス_1563" data-name="パス 1563" d="M214.477,259.263a43.116,43.116,0,0,1,3.811-2.418l-.018-2.038a14.358,14.358,0,0,1-2.318.079l-.229-1.785a11.933,11.933,0,0,0,1.5.079c.379,0,.608-.016,1.049-.047-.013-1.786-.013-1.928-.031-2.956l1.7.238c.428.063.428.173.428.252,0,.063-.229.253-.26.3-.062.094-.11,1.642-.123,1.943a9.468,9.468,0,0,0,2.348-.822v1.8a12.99,12.99,0,0,1-2.379.68l-.014,1.564a8.137,8.137,0,0,1,2.349-.363,3.452,3.452,0,0,1,3.675,3.6c0,1.944-1.221,3.476-2.851,3.476-1.678,0-1.895-1.09-2.106-2.244l1.419-.584c.181.647.3,1.058.775,1.058.551,0,1.177-.57,1.177-1.675a2.038,2.038,0,0,0-2.119-2.1,6.652,6.652,0,0,0-2.318.553c-.018,2.512-.018,2.8-.031,4.725l-1.617.664c-.657-.727-1.036-1.153-2.424-2.67a5.246,5.246,0,0,0-.458.458Zm3.811-.553a15.271,15.271,0,0,0-1.388.964,13.273,13.273,0,0,0,1.388,1.485Zm7.839-2.827a8.82,8.82,0,0,0-3.005-1.8l.992-1.39a11.146,11.146,0,0,1,3,1.786Z" transform="translate(-141.538 -249.94)" fill="#fff"/>
        <path id="パス_1564" data-name="パス 1564" d="M243.6,259.263a43.825,43.825,0,0,1,3.811-2.418l-.013-2.038a14.379,14.379,0,0,1-2.318.079l-.229-1.785a11.9,11.9,0,0,0,1.494.079c.384,0,.613-.016,1.053-.047-.018-1.786-.018-1.928-.031-2.956l1.692.238c.428.063.428.173.428.252,0,.063-.23.253-.26.3-.062.094-.106,1.642-.119,1.943a9.536,9.536,0,0,0,2.349-.822v1.8a13.108,13.108,0,0,1-2.38.68l-.018,1.564a8.166,8.166,0,0,1,2.349-.363,3.449,3.449,0,0,1,3.674,3.6c0,1.944-1.221,3.476-2.851,3.476-1.679,0-1.89-1.09-2.106-2.244l1.419-.584c.185.647.3,1.058.78,1.058.546,0,1.172-.57,1.172-1.675a2.038,2.038,0,0,0-2.119-2.1,6.649,6.649,0,0,0-2.318.553c-.013,2.512-.013,2.8-.031,4.725l-1.617.664c-.652-.727-1.036-1.153-2.424-2.67-.211.2-.242.22-.458.458Zm3.811-.553a15.917,15.917,0,0,0-1.388.964,13.155,13.155,0,0,0,1.388,1.485Zm7.839-2.827a8.744,8.744,0,0,0-3.005-1.8l.991-1.39a11.082,11.082,0,0,1,3.005,1.786Z" transform="translate(-152.348 -249.94)" fill="#fff"/>
        <path id="パス_1565" data-name="パス 1565" d="M278.39,254.454a45.448,45.448,0,0,1-3.142,8.406l-1.86-.585a26.8,26.8,0,0,0,3.1-7.52,19.447,19.447,0,0,1-2.274.189l-.123-1.643a5.953,5.953,0,0,0,1.238.094,10.615,10.615,0,0,0,1.507-.094,19.784,19.784,0,0,0,.52-3.35l1.877.458c.031,0,.379.079.379.253,0,.111-.044.158-.181.222-.2.094-.229.11-.26.267-.136.712-.26,1.28-.366,1.723a11.724,11.724,0,0,0,2.424-.932V253.7A18.02,18.02,0,0,1,278.39,254.454Zm3.86,8.517c-2.746,0-3.922-.791-3.922-2.4a3.75,3.75,0,0,1,.185-1.137l1.511.332a3.052,3.052,0,0,0-.062.584.559.559,0,0,0,.18.475,3.473,3.473,0,0,0,1.939.426,9.714,9.714,0,0,0,2.683-.347l.155,1.832A14.189,14.189,0,0,1,282.25,262.971Zm.335-6.273a17.97,17.97,0,0,0-2.286.174v-1.659c.793-.064,1.555-.111,2.361-.111a16.966,16.966,0,0,1,2.014.094v1.676A15.78,15.78,0,0,0,282.585,256.7Z" transform="translate(-163.403 -249.856)" fill="#fff"/>
        <path id="パス_1566" data-name="パス 1566" d="M313.306,260.475a7.362,7.362,0,0,1-3.552,2.78l-1.128-1.627a4.892,4.892,0,0,0,3.842-4.835,3.683,3.683,0,0,0-3.692-3.823,22.994,22.994,0,0,1-1.89,7.031c-.458.979-1.159,2.307-1.952,2.307a4.463,4.463,0,0,1-3.049-4.251,6.691,6.691,0,0,1,6.724-6.7,5.483,5.483,0,0,1,5.675,5.751A6.061,6.061,0,0,1,313.306,260.475Zm-8.2-6.083a5.28,5.28,0,0,0-1.524,3.508c0,1.28.7,1.943.978,1.943.794,0,2.1-4.125,2.41-6.588A4.435,4.435,0,0,0,305.1,254.393Z" transform="translate(-173.979 -250.379)" fill="#fff"/>
        <path id="パス_1567" data-name="パス 1567" d="M342.209,263.135a10.817,10.817,0,0,1-4.587-3.112v3.318h-1.864v-3.428a12.346,12.346,0,0,1-2.256,2.07,10.6,10.6,0,0,1-2.317,1.312l-1.357-1.564a10.122,10.122,0,0,0,4.486-2.513h-4.1v-1.6h5.548v-.743h-1.705V250.8h1.37a7.15,7.15,0,0,0,.384-1l1.736.142c.062,0,.335.032.335.19a.214.214,0,0,1-.075.143,1.855,1.855,0,0,0-.242.126,1.606,1.606,0,0,0-.216.4h2.168v6.082H337.6c.2.032.3.095.3.206,0,.142-.2.221-.286.237v.3h5.7v1.6H338.9a9.174,9.174,0,0,0,4.7,2.4ZM331.582,256.8c-.243.11-.291.142-.353.268-.15.269-.15.269-.229.269-.119,0-.2-.142-.256-.269l-.731-1.612a23.319,23.319,0,0,0,3.565-1.438l.26,1.6C332.846,256.168,332.282,256.453,331.582,256.8Zm1.022-3.271a11.81,11.81,0,0,0-2.256-1.69l.9-1.455a17.288,17.288,0,0,1,2.454,1.659Zm5.353-1.422h-2.4v1.122h2.4Zm0,2.355h-2.4v1.184h2.4Zm5.261-2.686a.5.5,0,0,0-.4.158,20.613,20.613,0,0,1-1.815,1.69l-1.405-1.074a11.217,11.217,0,0,0,2.273-2.259l1.375,1.026c.088.064.211.174.211.3S343.385,251.759,343.218,251.775Zm-.793,5.357a17.063,17.063,0,0,0-2.732-1.9l.978-1.39a20.675,20.675,0,0,1,2.882,1.9Z" transform="translate(-184.351 -249.8)" fill="#fff"/>
        <path id="パス_1568" data-name="パス 1568" d="M370.2,262.234a5.376,5.376,0,0,1-3.036,1.011,3.322,3.322,0,0,1-2.225-.806c-.718-.647-.961-1.454-.961-5.245,0-.964.124-5.656.075-6.715l2.032.3c.365.048.5.159.5.253,0,.126-.185.252-.427.458a61.215,61.215,0,0,0-.428,6.319,8.588,8.588,0,0,0,.29,2.8,1.46,1.46,0,0,0,1.339.663c.855,0,2.9-.553,4.393-3.586l1.494,1.28A11.594,11.594,0,0,1,370.2,262.234Z" transform="translate(-197.025 -250.052)" fill="#fff"/>
        <path id="パス_1569" data-name="パス 1569" d="M400.783,260.471c-.811-.648-1.238-.948-1.587-1.185a8.793,8.793,0,0,1-3.018,3.935l-1.512-1.09a7.589,7.589,0,0,0,3.036-3.713,9.221,9.221,0,0,0-3.054-.884c-1.507,3.349-2.163,4.36-3.507,4.36a1.821,1.821,0,0,1-1.722-2.037,3.947,3.947,0,0,1,1.8-3.129,4.005,4.005,0,0,1,2.424-.759c.441-1.09.793-1.99,1.234-3.428a10.329,10.329,0,0,1-2.776.489l-.683-1.6c2.348.016,4.146-.3,4.97-.853l1,1.043a6.465,6.465,0,0,0-.794,1.343c-.013.063-1.1,2.607-1.309,3.1a9.553,9.553,0,0,1,2.944.727,13.9,13.9,0,0,0,.4-2.891l1.705.49c.154.048.366.126.366.269,0,.078-.013.094-.225.2-.123.08-.123.111-.172.332a19.169,19.169,0,0,1-.516,2.354c.837.49,1.309.791,1.965,1.233Zm-9.777-.979c0,.411.2.426.308.426a.689.689,0,0,0,.639-.379,18.041,18.041,0,0,0,1-1.96C391.649,258.005,391.006,258.907,391.006,259.491Z" transform="translate(-206.468 -250.089)" fill="#fff"/>
        <path id="パス_1570" data-name="パス 1570" d="M424.406,253.72a12.414,12.414,0,0,1-.154,1.642h4.714a18.559,18.559,0,0,1-.365,5.262c-.551,2.07-1.357,2.654-3.463,2.717l-.794-1.753a11.328,11.328,0,0,0,1.177.047,1.127,1.127,0,0,0,1.234-.774,9.94,9.94,0,0,0,.441-3.9h-3.261a10.318,10.318,0,0,1-1.829,3.744,9.533,9.533,0,0,1-2.974,2.48l-1.358-1.343a7.81,7.81,0,0,0,3.583-3.064,8.919,8.919,0,0,0,1.2-5.056h-4.71v-1.676h5.534V249.8l1.952.159c.062,0,.277.047.277.189,0,.094-.185.221-.339.363v1.532h5.551v1.676Z" transform="translate(-216.992 -249.8)" fill="#fff"/>
      </g>
    </g>
  </g>
</svg>
