<svg xmlns="http://www.w3.org/2000/svg" width="45.995" height="45.995" viewBox="0 0 45.995 45.995">
  <path id="パス_40" data-name="パス 40" d="M23,4.088c6.133,0,6.9,0,9.2.256a11.852,11.852,0,0,1,4.344.767,8.974,8.974,0,0,1,4.344,4.344,11.852,11.852,0,0,1,.767,4.344c0,2.3.256,3.066.256,9.2s0,6.9-.256,9.2a11.852,11.852,0,0,1-.767,4.344,8.974,8.974,0,0,1-4.344,4.344,11.852,11.852,0,0,1-4.344.767c-2.3,0-3.066.256-9.2.256s-6.9,0-9.2-.256a11.852,11.852,0,0,1-4.344-.767A8.974,8.974,0,0,1,5.111,36.54,11.852,11.852,0,0,1,4.344,32.2c0-2.3-.256-3.066-.256-9.2s0-6.9.256-9.2a11.852,11.852,0,0,1,.767-4.344A9.177,9.177,0,0,1,6.9,6.9,4.32,4.32,0,0,1,9.454,5.111,11.852,11.852,0,0,1,13.8,4.344c2.3-.256,3.066-.256,9.2-.256M23,0a75.5,75.5,0,0,0-9.454.256A15.775,15.775,0,0,0,7.921,1.278,10,10,0,0,0,3.833,3.833,10,10,0,0,0,1.278,7.921,11.643,11.643,0,0,0,.256,13.543,75.5,75.5,0,0,0,0,23a75.5,75.5,0,0,0,.256,9.454,15.775,15.775,0,0,0,1.022,5.622,10,10,0,0,0,2.555,4.088,10,10,0,0,0,4.088,2.555,15.775,15.775,0,0,0,5.622,1.022A75.5,75.5,0,0,0,23,45.995a75.5,75.5,0,0,0,9.454-.256,15.775,15.775,0,0,0,5.622-1.022,10.721,10.721,0,0,0,6.644-6.644,15.775,15.775,0,0,0,1.022-5.622c0-2.555.256-3.322.256-9.454a75.5,75.5,0,0,0-.256-9.454,15.775,15.775,0,0,0-1.022-5.622,10,10,0,0,0-2.555-4.088,10,10,0,0,0-4.088-2.555A15.775,15.775,0,0,0,32.452.256,75.5,75.5,0,0,0,23,0m0,11.243A11.565,11.565,0,0,0,11.243,23,11.754,11.754,0,1,0,23,11.243m0,19.42A7.529,7.529,0,0,1,15.332,23,7.529,7.529,0,0,1,23,15.332,7.529,7.529,0,0,1,30.663,23,7.529,7.529,0,0,1,23,30.663M35.262,7.921a2.811,2.811,0,1,0,2.811,2.811,2.836,2.836,0,0,0-2.811-2.811" fill="#f4f4f4" fill-rule="evenodd"/>
</svg>
