<svg id="グループ_1052" data-name="グループ 1052" xmlns="http://www.w3.org/2000/svg" width="1920.195" height="2207.312" viewBox="0 0 1920.195 2207.312">
  <path id="パス_1600" data-name="パス 1600" d="M1496.014,1036.147a48.648,48.648,0,1,1-48.648,48.647A48.647,48.647,0,0,1,1496.014,1036.147Zm0,67.766a19.118,19.118,0,1,0-19.119-19.119A19.119,19.119,0,0,0,1496.014,1103.913Z" transform="translate(-1071.818 -1036.147)" fill="#8a9da3"/>
  <path id="パス_1601" data-name="パス 1601" d="M286.679,1319.08c86.414-6.921,108.053-41.99,108.8-68.045s-13.818-42.359-11.17-64.309S406.815,1156,424.21,1156c20.294,0,36.175,14.9,37.291,34.051s-9.195,32.382-9.195,58.408,20.49,55.868,58.854,59.574l-.005,0c135.951,11.608,282.687,14.154,440.4-18.785,403.55-84.283,621.042,121.586,968.657-83.473V3243.459H.21l-.2-1973.88C71.7,1304.88,200.265,1326,286.679,1319.08Z" transform="translate(-0.014 -1036.147)" fill="#8a9da3"/>
</svg>
