<svg xmlns="http://www.w3.org/2000/svg" width="74.235" height="86.752" viewBox="0 0 74.235 86.752">
  <g id="コンポーネント_33_57" data-name="コンポーネント 33 – 57" transform="translate(0 0.5)">
    <g id="グループ_8" data-name="グループ 8" transform="translate(0 -0.001)">
      <path id="パス_1410" data-name="パス 1410" d="M247.585,468.331c-2.208,0-3.534-.737-5.263-3.124-1.705-2.356-1.1-4.235,2.93-5.1l15.814-3.658c3.888-.8,6.4-2.231,9.508,1.829,2.248,2.935,1.749,4.665-1.761,5.483l-19.856,4.411A7.167,7.167,0,0,1,247.585,468.331Z" transform="translate(-241.234 -442.007)" fill="#f4f4f4"/>
      <path id="パス_1411" data-name="パス 1411" d="M300.667,470.689c8.309,3.435,11.767,9.806,11.767,15.376,0,7.709-6.967,14.352-18.633,17.768a4.851,4.851,0,0,1-6.119-3.648,5.051,5.051,0,0,1,3.621-5.747c7.839-2.348,11.359-5.976,11.411-8.374.051-2.357-1.555-4.009-3.446-5.53a1.931,1.931,0,0,1-.712-1.829,60.407,60.407,0,0,1-.094-7.137C298.64,470.5,299.969,470.4,300.667,470.689Z" transform="translate(-238.199 -441.02)" fill="#f4f4f4"/>
      <path id="パス_1412" data-name="パス 1412" d="M288.046,475.314c-.176,1.07-1.362,1.067-1.932.989a77.422,77.422,0,0,0-9.087-.813c-15.91,0-26.062,6.147-26.062,10.379s10.152,10.38,26.062,10.38c1.178,0,2.333-.034,3.472-.1a4.882,4.882,0,0,1,5.125,5.362,5.064,5.064,0,0,1-4.875,4.358c-1.228.067-2.479.1-3.723.1-20.4,0-35.781-8.64-35.781-20.1s15.383-20.1,35.781-20.1a43.269,43.269,0,0,1,8.442.514c1.076.22,1.88.668,2.021,1.5A36.863,36.863,0,0,1,288.046,475.314Z" transform="translate(-241.246 -441.334)" fill="#f4f4f4"/>
      <path id="パス_1413" data-name="パス 1413" d="M280.336,506.584a4.994,4.994,0,0,1-4.258-2.384l-27.055-43.927c-1.459-2.368-1.228-4.8,2.3-6.172,2.733-1.058,4.9-.937,6.2.845l27.053,43.926a5.071,5.071,0,0,1-1.61,6.952A4.955,4.955,0,0,1,280.336,506.584Z" transform="translate(-240.79 -442.146)" fill="#f4f4f4"/>
      <g id="グループ_7" data-name="グループ 7" transform="translate(44.85)">
        <path id="中マド_1" data-name="中マド 1" d="M-14923.987,9569.938a8.637,8.637,0,0,1-8.627-8.627,8.636,8.636,0,0,1,8.627-8.624,8.634,8.634,0,0,1,8.624,8.624A8.636,8.636,0,0,1-14923.987,9569.938Zm0-11.419a2.8,2.8,0,0,0-2.795,2.792,2.8,2.8,0,0,0,2.795,2.792,2.8,2.8,0,0,0,2.792-2.792A2.8,2.8,0,0,0-14923.987,9558.519Z" transform="translate(14932.613 -9552.686)" fill="#f4f4f4" stroke="rgba(0,0,0,0)" stroke-miterlimit="10" stroke-width="1"/>
      </g>
      <path id="パス_1414" data-name="パス 1414" d="M296.32,466.478a139.9,139.9,0,0,0-.06,15.821c.238,5.273.58,10.547,1.271,15.82a5.8,5.8,0,0,1-11.5,1.508,6.049,6.049,0,0,1,0-1.508c.692-5.273,1.034-10.547,1.271-15.82a139.9,139.9,0,0,0-.061-15.821,4.553,4.553,0,1,1,9.083-.648A4.879,4.879,0,0,1,296.32,466.478Z" transform="translate(-238.304 -441.608)" fill="#f4f4f4"/>
    </g>
    <g id="グループ_11" data-name="グループ 11" transform="translate(12.974 69.406)">
      <g id="グループ_9" data-name="グループ 9">
        <path id="パス_1415" data-name="パス 1415" d="M279.638,517.174h-1.7a.156.156,0,0,1-.156-.156v-5.351a.157.157,0,0,1,.156-.156h1.7a.156.156,0,0,1,.155.156v5.351A.155.155,0,0,1,279.638,517.174Zm.415-7.91a1.265,1.265,0,0,1-.4.887,1.233,1.233,0,0,1-.868.342,1.246,1.246,0,0,1-.637-.166,1.211,1.211,0,0,1-.455-.455,1.249,1.249,0,0,1-.167-.638,1.235,1.235,0,0,1,.342-.866,1.258,1.258,0,0,1,.888-.4,1.281,1.281,0,0,1,1.3,1.3Z" transform="translate(-251.834 -507.966)" fill="#f4f4f4"/>
        <path id="パス_1416" data-name="パス 1416" d="M285.706,513a.267.267,0,0,1,.229-.259,1.642,1.642,0,0,0,.621-.19.8.8,0,0,0,.454-.685.814.814,0,0,0-.416-.724,3.552,3.552,0,0,0-1.56-.164.291.291,0,0,0-.275.292v5.488a.293.293,0,0,1-.293.293h-1.607a.293.293,0,0,1-.293-.293v-6.839a.577.577,0,0,1,.578-.577h3.377a2.871,2.871,0,0,1,1.569.389,2.336,2.336,0,0,1,.88.945,2.409,2.409,0,0,1,.271,1.057,1.984,1.984,0,0,1-.226.987,1.782,1.782,0,0,1-.475.586,2.01,2.01,0,0,1-.39.212.15.15,0,0,0-.025.262,2.194,2.194,0,0,1,.416.391,5.7,5.7,0,0,1,.711,1.2l.474,1.019a.461.461,0,0,1-.418.655h-1.585a.293.293,0,0,1-.268-.175l-.529-1.194a5.631,5.631,0,0,0-.6-1.1,1.457,1.457,0,0,0-.452-.415.322.322,0,0,1-.163-.26Z" transform="translate(-251.502 -507.875)" fill="#f4f4f4"/>
        <path id="パス_1417" data-name="パス 1417" d="M299.267,513.228a4.05,4.05,0,0,1-.5,1.985,3.586,3.586,0,0,1-1.481,1.441,4.969,4.969,0,0,1-2.4.534,4.872,4.872,0,0,1-2.419-.556A3.6,3.6,0,0,1,291,515.17a4.169,4.169,0,0,1,0-3.885,3.577,3.577,0,0,1,1.471-1.458,4.913,4.913,0,0,1,2.422-.553,5.358,5.358,0,0,1,1.9.317,3.817,3.817,0,0,1,1.377.86,3.616,3.616,0,0,1,.817,1.262A4.2,4.2,0,0,1,299.267,513.228Zm-2.369,0a2.379,2.379,0,0,0-.128-.793,1.711,1.711,0,0,0-.387-.622,1.794,1.794,0,0,0-.631-.411,2.341,2.341,0,0,0-.862-.147,1.979,1.979,0,1,0,0,3.954,2.191,2.191,0,0,0,1.089-.253,1.69,1.69,0,0,0,.684-.7A2.182,2.182,0,0,0,296.9,513.228Z" transform="translate(-250.979 -507.88)" fill="#f4f4f4"/>
        <path id="パス_1418" data-name="パス 1418" d="M255.271,517.084h-1.7a.155.155,0,0,1-.156-.156v-7.435a.155.155,0,0,1,.156-.155h1.7a.155.155,0,0,1,.156.155v7.435A.155.155,0,0,1,255.271,517.084Z" transform="translate(-253.419 -507.875)" fill="#f4f4f4"/>
        <path id="パス_1419" data-name="パス 1419" d="M261.735,513a.268.268,0,0,1,.23-.259,1.648,1.648,0,0,0,.621-.19.8.8,0,0,0,.454-.685.813.813,0,0,0-.417-.724,3.549,3.549,0,0,0-1.56-.164.29.29,0,0,0-.274.292v5.488a.293.293,0,0,1-.293.293h-1.607a.293.293,0,0,1-.293-.293v-6.839a.576.576,0,0,1,.577-.577h3.379a2.868,2.868,0,0,1,1.568.389,2.332,2.332,0,0,1,.881.945,2.424,2.424,0,0,1,.271,1.057,2,2,0,0,1-.226.987,1.781,1.781,0,0,1-.475.586,2.008,2.008,0,0,1-.39.212.15.15,0,0,0-.025.262,2.2,2.2,0,0,1,.416.391,5.75,5.75,0,0,1,.711,1.2l.474,1.019a.461.461,0,0,1-.418.655h-1.585a.292.292,0,0,1-.268-.175l-.529-1.194a5.629,5.629,0,0,0-.6-1.1,1.456,1.456,0,0,0-.452-.415.326.326,0,0,1-.164-.26Z" transform="translate(-253.079 -507.875)" fill="#f4f4f4"/>
        <path id="パス_1420" data-name="パス 1420" d="M275.406,513.228a4.051,4.051,0,0,1-.5,1.985,3.586,3.586,0,0,1-1.481,1.441,4.969,4.969,0,0,1-2.4.534,4.878,4.878,0,0,1-2.42-.556,3.618,3.618,0,0,1-1.471-1.462,4.177,4.177,0,0,1,0-3.885,3.573,3.573,0,0,1,1.472-1.458,4.91,4.91,0,0,1,2.423-.553,5.358,5.358,0,0,1,1.9.317,3.817,3.817,0,0,1,1.377.86,3.617,3.617,0,0,1,.817,1.262A4.2,4.2,0,0,1,275.406,513.228Zm-2.37,0a2.355,2.355,0,0,0-.128-.793,1.694,1.694,0,0,0-.386-.622,1.789,1.789,0,0,0-.632-.411,2.332,2.332,0,0,0-.861-.147,1.979,1.979,0,1,0,0,3.954,2.191,2.191,0,0,0,1.089-.253,1.69,1.69,0,0,0,.684-.7A2.195,2.195,0,0,0,273.036,513.228Z" transform="translate(-252.548 -507.88)" fill="#f4f4f4"/>
      </g>
      <g id="グループ_10" data-name="グループ 10" transform="translate(14.062 11.503)">
        <path id="パス_1421" data-name="パス 1421" d="M272.518,521.429a2.745,2.745,0,0,1-.336,1.341,2.426,2.426,0,0,1-1,.972,3.361,3.361,0,0,1-1.618.36,3.29,3.29,0,0,1-1.634-.375,2.449,2.449,0,0,1-.993-.988,2.818,2.818,0,0,1,0-2.622,2.418,2.418,0,0,1,.992-.984,3.315,3.315,0,0,1,1.636-.374,3.6,3.6,0,0,1,1.285.214,2.573,2.573,0,0,1,.929.58,2.451,2.451,0,0,1,.552.853A2.8,2.8,0,0,1,272.518,521.429Zm-1.6,0a1.556,1.556,0,0,0-.086-.535,1.131,1.131,0,0,0-.261-.421,1.2,1.2,0,0,0-.425-.277,1.558,1.558,0,0,0-.582-.1,1.337,1.337,0,1,0,0,2.67,1.48,1.48,0,0,0,.735-.171,1.133,1.133,0,0,0,.461-.473A1.471,1.471,0,0,0,270.919,521.429Z" transform="translate(-266.613 -518.759)" fill="#f4f4f4"/>
        <path id="パス_1422" data-name="パス 1422" d="M278.854,520.091h-1.467a.221.221,0,0,0-.221.221v3.5a.22.22,0,0,1-.22.221h-1.125a.221.221,0,0,1-.221-.221v-3.5a.22.22,0,0,0-.22-.221h-1.468a.219.219,0,0,1-.22-.219v-.825a.22.22,0,0,1,.22-.221h4.94a.221.221,0,0,1,.221.221v.825A.22.22,0,0,1,278.854,520.091Z" transform="translate(-266.147 -518.755)" fill="#f4f4f4"/>
        <path id="パス_1423" data-name="パス 1423" d="M285.689,524.03h-1.12a.219.219,0,0,1-.2-.139l-.338-.839a.123.123,0,0,0-.115-.078h-2.093a.123.123,0,0,0-.114.077l-.344.842a.222.222,0,0,1-.2.136h-1.122a.22.22,0,0,1-.2-.309l2.106-4.764a.222.222,0,0,1,.2-.131h1.448a.22.22,0,0,1,.2.131l2.1,4.764A.22.22,0,0,1,285.689,524.03Zm-2.122-2.13-.58-1.444a.124.124,0,0,0-.23,0l-.585,1.444a.124.124,0,0,0,.115.171h1.165A.125.125,0,0,0,283.567,521.9Z" transform="translate(-265.745 -518.755)" fill="#f4f4f4"/>
      </g>
    </g>
  </g>
</svg>
