<svg xmlns="http://www.w3.org/2000/svg" width="104.683" height="91.644" viewBox="0 0 104.683 91.644">
  <g id="グループ_1218" data-name="グループ 1218" transform="translate(0 0.501)">
    <path id="パス_1410" data-name="パス 1410" d="M250.11,473.576c-3.114,0-4.984-1.04-7.421-4.4-2.4-3.323-1.549-5.973,4.131-7.187l22.3-5.158c5.483-1.126,9.023-3.146,13.407,2.579,3.17,4.139,2.466,6.578-2.483,7.732l-28,6.22A10.1,10.1,0,0,1,250.11,473.576Z" transform="translate(-241.154 -436.455)" fill="#3e3a39"/>
    <path id="パス_1411" data-name="パス 1411" d="M306.034,470.746c11.717,4.844,16.593,13.828,16.593,21.682,0,10.87-9.824,20.238-26.275,25.056a6.841,6.841,0,0,1-8.628-5.144,7.123,7.123,0,0,1,5.107-8.1c11.054-3.311,16.018-8.427,16.092-11.808.072-3.324-2.193-5.654-4.859-7.8a2.723,2.723,0,0,1-1-2.579,85.193,85.193,0,0,1-.132-10.065C303.177,470.478,305.051,470.339,306.034,470.746Z" transform="translate(-217.944 -428.908)" fill="#3e3a39"/>
    <path id="パス_1412" data-name="パス 1412" d="M307.241,479.228c-.248,1.509-1.921,1.5-2.725,1.395a109.191,109.191,0,0,0-12.814-1.147c-22.435,0-36.752,8.669-36.752,14.637s14.317,14.637,36.752,14.637c1.661,0,3.29-.048,4.9-.146a6.884,6.884,0,0,1,7.227,7.561,7.142,7.142,0,0,1-6.874,6.145c-1.731.095-3.5.144-5.25.144-28.764,0-50.457-12.184-50.457-28.342s21.693-28.34,50.457-28.34a61.012,61.012,0,0,1,11.9.724c1.518.31,2.651.942,2.849,2.109A51.984,51.984,0,0,1,307.241,479.228Z" transform="translate(-241.246 -431.311)" fill="#3e3a39"/>
    <path id="パス_1413" data-name="パス 1413" d="M293.525,528.387a7.043,7.043,0,0,1-6-3.362L249.37,463.081c-2.057-3.339-1.731-6.775,3.248-8.7,3.853-1.492,6.91-1.321,8.747,1.192l38.15,61.942a7.151,7.151,0,0,1-2.271,9.8A6.987,6.987,0,0,1,293.525,528.387Z" transform="translate(-237.759 -437.518)" fill="#3e3a39"/>
    <g id="グループ_7" data-name="グループ 7" transform="translate(63.246)">
      <path id="中マド_2" data-name="中マド 2" d="M19731.916,1746.023a12.163,12.163,0,1,1,8.6-3.562A12.09,12.09,0,0,1,19731.916,1746.023Zm0-16.1a3.939,3.939,0,1,0,3.939,3.939A3.944,3.944,0,0,0,19731.916,1729.924Z" transform="translate(-19719.754 -1721.699)" fill="#3e3a39" stroke="rgba(0,0,0,0)" stroke-miterlimit="10" stroke-width="1"/>
    </g>
    <path id="パス_1414" data-name="パス 1414" d="M300.561,468.478a197.3,197.3,0,0,0-.084,22.31c.335,7.436.818,14.873,1.793,22.309a8.181,8.181,0,0,1-16.224,2.127,8.533,8.533,0,0,1,0-2.127c.975-7.436,1.458-14.873,1.793-22.309a197.3,197.3,0,0,0-.086-22.31,6.42,6.42,0,1,1,12.808-.914A6.869,6.869,0,0,1,300.561,468.478Z" transform="translate(-218.75 -433.408)" fill="#3e3a39"/>
  </g>
</svg>
