<svg xmlns="http://www.w3.org/2000/svg" width="178.008" height="70.108" viewBox="0 0 178.008 70.108">
  <g id="グループ_1031" data-name="グループ 1031" transform="translate(0)">
    <g id="グループ_1028" data-name="グループ 1028" transform="translate(20.261 0)">
      <g id="グループ_1027" data-name="グループ 1027">
        <path id="パス_1587" data-name="パス 1587" d="M1142.393,205.7a.481.481,0,0,1-.481-.484l.206-26.7h-.156l-9.539,26.868a.48.48,0,0,1-.453.319h-5.612a.48.48,0,0,1-.455-.323l-9.277-26.864h-.158l.206,26.7a.48.48,0,0,1-.48.484h-7.48a.481.481,0,0,1-.481-.48V167.761a.481.481,0,0,1,.481-.481h11.937a.482.482,0,0,1,.455.325l8.345,24.311h.209l7.98-24.306a.481.481,0,0,1,.457-.331h12.144a.481.481,0,0,1,.48.481V205.22a.48.48,0,0,1-.48.48Z" transform="translate(-1108.233 -167.28)" fill="#302d2c"/>
        <path id="パス_1588" data-name="パス 1588" d="M1227.095,205.14l-2.67-6.983h-14.374l-2.519,6.968a.872.872,0,0,1-.82.575h-7.851a.872.872,0,0,1-.808-1.2l14.872-36.676a.873.873,0,0,1,.808-.545h7.531a.873.873,0,0,1,.809.547L1236.8,204.5a.871.871,0,0,1-.809,1.2h-8.077A.872.872,0,0,1,1227.095,205.14Zm-9.752-27.6-4.722,13.188h9.337Z" transform="translate(-1141.546 -167.28)" fill="#302d2c"/>
        <path id="パス_1589" data-name="パス 1589" d="M1310.237,179.111a12.11,12.11,0,0,1-1.208,5.67,10.1,10.1,0,0,1-3.252,3.717,14.054,14.054,0,0,1-4.721,2.063,23.427,23.427,0,0,1-5.559.651h-4.459v13.466a1.023,1.023,0,0,1-1.024,1.023h-6.922a1.023,1.023,0,0,1-1.024-1.023V168.3a1.024,1.024,0,0,1,1.024-1.024h12.615a24.773,24.773,0,0,1,5.692.624,13.206,13.206,0,0,1,4.616,2.007,9.635,9.635,0,0,1,3.095,3.636A12.358,12.358,0,0,1,1310.237,179.111Zm-8.971.054a4.246,4.246,0,0,0-.524-2.225,3.705,3.705,0,0,0-1.417-1.358,5.961,5.961,0,0,0-2.018-.651,16.409,16.409,0,0,0-2.335-.162h-3.934v9.062h3.777a12.987,12.987,0,0,0,2.413-.217,6.337,6.337,0,0,0,2.072-.761,3.986,3.986,0,0,0,1.442-1.438A4.388,4.388,0,0,0,1301.265,179.165Z" transform="translate(-1172.752 -167.28)" fill="#302d2c"/>
      </g>
    </g>
    <g id="グループ_1030" data-name="グループ 1030" transform="translate(0 55.729)">
      <g id="グループ_1029" data-name="グループ 1029">
        <path id="パス_1590" data-name="パス 1590" d="M1078.7,263.735a1.638,1.638,0,0,1-1.128-.523c-1.066-1.075-1.556-2.924-1.556-5.924a15.891,15.891,0,0,1,.458-4.109l1.677.474c.108.033.35.11.35.3,0,.174-.183.238-.441.333a16.793,16.793,0,0,0-.291,3.523c0,3.082.731,3.65,1.038,3.65.548,0,1.174-1.675,1.463-2.432l1.267,1.168C1080.695,262.061,1079.933,263.735,1078.7,263.735Zm7.733-2.813a15.034,15.034,0,0,0-2.242-6.415l1.57-.789a13.707,13.707,0,0,1,2.5,6.715Z" transform="translate(-1076.013 -250.636)" fill="#302d2c"/>
        <path id="パス_1591" data-name="パス 1591" d="M1109.919,264.232l-.777-1.692a7.91,7.91,0,0,0,4.192-.709,2.633,2.633,0,0,0,1.388-2.37,2.029,2.029,0,0,0-2.271-2.038c-2.258,0-3.873,1.769-5.323,3.349l-1.4-1.28a48.551,48.551,0,0,0,5.887-6.241,16.36,16.36,0,0,1-3.43.363l-.61-1.815a10.9,10.9,0,0,0,1.646.126,14.246,14.246,0,0,0,2.7-.318,9.708,9.708,0,0,0,1.862-.535l1.051,1.3a41.326,41.326,0,0,0-3.659,3.965,5.371,5.371,0,0,1,1.722-.3,3.451,3.451,0,0,1,3.584,3.617C1116.476,263.884,1111.748,264.122,1109.919,264.232Z" transform="translate(-1087.041 -249.853)" fill="#302d2c"/>
        <path id="パス_1592" data-name="パス 1592" d="M1144.677,252.8c-.227.015-.258.048-.472.284a19.887,19.887,0,0,1-2.516,2.465v8.422h-1.908v-6.953a26.838,26.838,0,0,1-3.842,2.242l-1.326-1.405a23.738,23.738,0,0,0,8.845-6.715l1.326,1.136c.06.048.258.253.258.381C1145.042,252.773,1144.983,252.788,1144.677,252.8Z" transform="translate(-1097.762 -249.88)" fill="#302d2c"/>
        <path id="パス_1593" data-name="パス 1593" d="M1173.074,264.08V263.4h-6.938v.617h-1.815V253.681h10.568v10.4Zm0-8.612h-6.938v6.147h6.938Z" transform="translate(-1108.789 -250.822)" fill="#302d2c"/>
        <path id="パス_1594" data-name="パス 1594" d="M1192,260.279a43.272,43.272,0,0,1,3.811-2.417l-.016-2.037a14.585,14.585,0,0,1-2.317.079l-.229-1.787a11.68,11.68,0,0,0,1.5.079c.381,0,.61-.016,1.051-.047-.015-1.787-.015-1.927-.031-2.956l1.694.238c.428.064.428.174.428.253,0,.062-.229.253-.26.3-.061.095-.107,1.644-.121,1.943a9.33,9.33,0,0,0,2.346-.821v1.8a12.828,12.828,0,0,1-2.377.679l-.016,1.565a8.182,8.182,0,0,1,2.349-.363,3.451,3.451,0,0,1,3.675,3.6c0,1.945-1.221,3.476-2.851,3.476-1.679,0-1.892-1.09-2.106-2.243l1.419-.584c.183.648.3,1.058.778,1.058.548,0,1.174-.568,1.174-1.675a2.037,2.037,0,0,0-2.119-2.1,6.663,6.663,0,0,0-2.318.553c-.015,2.512-.015,2.8-.031,4.723l-1.617.665c-.655-.727-1.036-1.154-2.424-2.67a6.057,6.057,0,0,0-.458.458Zm3.811-.553a15.353,15.353,0,0,0-1.388.965,13.254,13.254,0,0,0,1.388,1.485Zm7.839-2.827a8.763,8.763,0,0,0-3.005-1.8l.991-1.39a11.133,11.133,0,0,1,3.005,1.785Z" transform="translate(-1119.061 -249.899)" fill="#302d2c"/>
        <path id="パス_1595" data-name="パス 1595" d="M1221.128,260.279a43.277,43.277,0,0,1,3.811-2.417l-.016-2.037a14.585,14.585,0,0,1-2.317.079l-.23-1.787a11.691,11.691,0,0,0,1.5.079c.381,0,.611-.016,1.051-.047-.015-1.787-.015-1.927-.031-2.956l1.694.238c.428.064.428.174.428.253,0,.062-.229.253-.26.3-.062.095-.108,1.644-.121,1.943a9.366,9.366,0,0,0,2.348-.821v1.8a12.869,12.869,0,0,1-2.379.679l-.016,1.565a8.2,8.2,0,0,1,2.349-.363,3.451,3.451,0,0,1,3.674,3.6c0,1.945-1.22,3.476-2.851,3.476-1.678,0-1.892-1.09-2.106-2.243l1.419-.584c.183.648.3,1.058.778,1.058.548,0,1.174-.568,1.174-1.675a2.037,2.037,0,0,0-2.119-2.1,6.652,6.652,0,0,0-2.318.553c-.015,2.512-.015,2.8-.031,4.723l-1.617.665c-.655-.727-1.036-1.154-2.424-2.67a6.056,6.056,0,0,0-.458.458Zm3.811-.553a15.4,15.4,0,0,0-1.388.965,13.265,13.265,0,0,0,1.388,1.485Zm7.839-2.827a8.76,8.76,0,0,0-3.005-1.8l.992-1.39a11.118,11.118,0,0,1,3,1.785Z" transform="translate(-1129.872 -249.899)" fill="#302d2c"/>
        <path id="パス_1596" data-name="パス 1596" d="M1255.914,255.473a45.77,45.77,0,0,1-3.142,8.405l-1.86-.584a26.837,26.837,0,0,0,3.1-7.521,19.147,19.147,0,0,1-2.274.189l-.121-1.643a5.9,5.9,0,0,0,1.236.094,10.634,10.634,0,0,0,1.509-.094,19.846,19.846,0,0,0,.518-3.349l1.877.458c.031,0,.381.079.381.253,0,.11-.047.157-.183.22-.2.095-.229.111-.26.269-.137.711-.26,1.28-.366,1.722a11.778,11.778,0,0,0,2.423-.931v1.753A17.972,17.972,0,0,1,1255.914,255.473Zm3.857,8.517c-2.745,0-3.919-.791-3.919-2.4a3.791,3.791,0,0,1,.183-1.137l1.511.333a3.061,3.061,0,0,0-.062.584.551.551,0,0,0,.183.473,3.459,3.459,0,0,0,1.936.428,9.7,9.7,0,0,0,2.683-.348l.154,1.833A14.151,14.151,0,0,1,1259.772,263.99Zm.337-6.274a18.383,18.383,0,0,0-2.289.174V256.23c.794-.064,1.556-.11,2.364-.11a16.677,16.677,0,0,1,2.014.095v1.674A15.909,15.909,0,0,0,1260.109,257.716Z" transform="translate(-1140.927 -249.815)" fill="#302d2c"/>
        <path id="パス_1597" data-name="パス 1597" d="M1291.1,256.478c-.381.379-2.546,2.639-4.439,4.726a13.9,13.9,0,0,1,1.282,1.754l-1.54,1.28a15.821,15.821,0,0,0-3.842-4.741l1.188-1.231a19.8,19.8,0,0,1,1.678,1.546c1.19-1.231,2.058-2.163,3.1-3.318h-8.585v-1.785h9.88a1.57,1.57,0,0,0,.719-.348l1.264,1.533C1291.5,256.13,1291.273,256.319,1291.1,256.478Z" transform="translate(-1151.701 -251.074)" fill="#302d2c"/>
        <path id="パス_1598" data-name="パス 1598" d="M1312.2,260.593a10.076,10.076,0,0,0-1.158-2.542l1.4-.553a10.225,10.225,0,0,1,1.174,2.542Zm7.929-2.826c-.136.077-.152.141-.3.758a11.284,11.284,0,0,1-5.688,7.583l-1.221-1.121c2.959-1.516,5.031-3.681,5.611-8.154l1.5.476c.2.062.3.174.3.284C1320.324,257.687,1320.293,257.7,1320.125,257.767ZM1315,259.82a10.263,10.263,0,0,0-1.082-2.56l1.357-.538a9.756,9.756,0,0,1,1.037,2.56Z" transform="translate(-1163.243 -251.95)" fill="#302d2c"/>
        <path id="パス_1599" data-name="パス 1599" d="M1349.264,253.954a19.133,19.133,0,0,1-2.683,5.34,13.719,13.719,0,0,1-4.514,3.855l-1.661-1.39a12.365,12.365,0,0,0,5.063-4.139,13.6,13.6,0,0,0,1.906-3.871h-8.127v-1.833h8.63a.866.866,0,0,0,.5-.253l1.509,1.421A2.088,2.088,0,0,0,1349.264,253.954Zm1.022-1.8a1.511,1.511,0,1,1,1.434-1.516A1.474,1.474,0,0,1,1350.286,252.152Zm0-2.4a.865.865,0,0,0-.839.885.879.879,0,0,0,.839.9.894.894,0,0,0,0-1.784Z" transform="translate(-1173.712 -249.134)" fill="#302d2c"/>
      </g>
    </g>
  </g>
</svg>
