<svg xmlns="http://www.w3.org/2000/svg" width="200" height="302.9" viewBox="0 0 260 302.9">
  <g id="グループ_18" data-name="グループ 18" transform="translate(110.026 -136.184)">
    <path id="パス_241" data-name="パス 241" d="M24.623,204.975c-2.441-1.012-7.1-.663-7.718,3.087a213.126,213.126,0,0,0,.329,25.046c-.131,4.534,1.538,5.367,2.494,6.417,6.623,5.337,12.25,11.133,12.068,19.4-.131,6.077-6.637,14.393-20.552,21.653q-.411-4.588-.77-9.175c-.732-9.252-1.234-18.5-1.637-27.758-.429-9.252-.633-18.5-.673-27.756.006-9.252.167-18.5.883-27.756a17.352,17.352,0,0,0,0-2.466A15.966,15.966,0,0,0-8.1,170.985a15.97,15.97,0,0,0-14.689,17.153c.716,9.252.877,18.5.883,27.756-.038,9.252-.244,18.5-.673,27.756-.4,9.254-.9,18.506-1.635,27.758s-1.554,18.5-2.821,27.756a21.209,21.209,0,0,0,0,5.514A20.355,20.355,0,0,0-4.116,322.086c.349-.048.681-.129,1.022-.194a16.8,16.8,0,0,0,3.669-.615c40.86-11.99,65.259-35.3,65.259-62.348C65.834,239.385,53.722,217.027,24.623,204.975Z" transform="translate(84.14 35.312)" fill="#302d2c"/>
    <path id="パス_242" data-name="パス 242" d="M28.333,342.666a19.16,19.16,0,0,0,6.9-1.716c.2-.085.393-.175.589-.268.137-.069.268-.143.4-.216.5-.25,1.006-.488,1.49-.792a17.816,17.816,0,0,0,5.643-24.393L-4.735,237.051c6.339-.627,13.024-.968,20.032-.968,9.236,0,22.826,1.611,31.822,2.851,2,.274,6.153.286,6.768-3.472a129.449,129.449,0,0,0-1.948-26.429c-.494-2.905-3.308-4.478-7.076-5.248-9.359-1.911-19.705-1.8-29.566-1.8a229.836,229.836,0,0,0-39.544,3.329l-5.583-9.08,16.4-3.649c12.29-2.871,14.036-8.943,6.163-19.242-10.887-14.242-19.681-9.218-33.3-6.415l-6.373,1.476-4.458-7.248c-4.562-6.256-12.153-6.681-21.725-2.968-10.816,4.2-12.79,11.264-9.693,18.53l-13.139,3.044c-14.111,3.022-16.234,9.615-10.258,17.883,6.05,8.375,10.7,10.964,18.431,10.964a24.8,24.8,0,0,0,4.8-.546l16.836-3.748,6.669,10.851c-31.062,12.584-50.556,33.171-50.556,57.342,0,40.2,53.88,70.521,125.323,70.521C19.651,343.023,24.032,342.9,28.333,342.666ZM-75.988,272.5c0-8.861,12.665-20.111,34.711-27.746L-2.3,308.167C-47.793,304.254-75.988,285.724-75.988,272.5Z" transform="translate(0 19.951)" fill="#302d2c"/>
    <path id="パス_243" data-name="パス 243" d="M-38.527,257.063a4.437,4.437,0,0,0-3.139,1.421,4.381,4.381,0,0,0-1.212,3.071,4.453,4.453,0,0,0,.591,2.26,4.31,4.31,0,0,0,1.611,1.613,4.425,4.425,0,0,0,2.256.593,4.377,4.377,0,0,0,3.066-1.214,4.461,4.461,0,0,0,1.419-3.145,4.354,4.354,0,0,0-1.329-3.27,4.326,4.326,0,0,0-3.157-1.331Z" transform="translate(68.229 122.823)" fill="#302d2c"/>
    <rect id="長方形_454" data-name="長方形 454" width="7.121" height="19.956" rx="0.292" transform="translate(26.262 392.329)" fill="#302d2c"/>
    <path id="パス_244" data-name="パス 244" d="M-10.044,280.809a19.669,19.669,0,0,0-2.5-4.234A7.758,7.758,0,0,0-14,275.194a.5.5,0,0,1-.212-.466.463.463,0,0,1,.286-.379,7.161,7.161,0,0,0,1.377-.746,6.373,6.373,0,0,0,1.677-2.075,7.065,7.065,0,0,0,.794-3.484,8.6,8.6,0,0,0-.95-3.73,8.27,8.27,0,0,0-3.1-3.335,10.126,10.126,0,0,0-5.516-1.373H-31.48a2.068,2.068,0,0,0-2.064,2.069v24a1.073,1.073,0,0,0,1.069,1.073h5.631a1.071,1.071,0,0,0,1.069-1.073V266.418a.978.978,0,0,1,.919-.98c1.556-.087,4.329-.123,5.439.571a2.814,2.814,0,0,1,1.439,2.5,2.711,2.711,0,0,1-1.571,2.369,5.616,5.616,0,0,1-2.159.655.985.985,0,0,0-.843.956l.018,3.2a1.184,1.184,0,0,0,.595.95,5.044,5.044,0,0,1,1.571,1.441,19.888,19.888,0,0,1,2.1,3.845l1.853,4.189a1.075,1.075,0,0,0,.978.637h5.55a1.648,1.648,0,0,0,1.4-.768,1.648,1.648,0,0,0,.1-1.593Z" transform="translate(77.713 125.411)" fill="#302d2c"/>
    <path id="パス_245" data-name="パス 245" d="M8.057,263.629A13.443,13.443,0,0,0,3.222,260.6a18.874,18.874,0,0,0-6.689-1.115,17.241,17.241,0,0,0-8.5,1.95,12.615,12.615,0,0,0-5.171,5.131,14.5,14.5,0,0,0-1.679,6.841,14.425,14.425,0,0,0,1.692,6.831,12.758,12.758,0,0,0,5.167,5.151,17.144,17.144,0,0,0,8.5,1.958,17.508,17.508,0,0,0,8.417-1.879,12.69,12.69,0,0,0,5.208-5.073,14.366,14.366,0,0,0,1.75-6.988,14.831,14.831,0,0,0-.976-5.337A12.755,12.755,0,0,0,8.057,263.629ZM2.708,276.99a5.9,5.9,0,0,1-2.379,2.439,7.654,7.654,0,0,1-3.8.883,6.835,6.835,0,0,1-5.1-1.911,6.853,6.853,0,0,1-1.869-4.992,6.85,6.85,0,0,1,1.859-4.986,6.851,6.851,0,0,1,5.111-1.9,8.225,8.225,0,0,1,3,.512,6.328,6.328,0,0,1,2.2,1.435,5.935,5.935,0,0,1,1.343,2.169,8.253,8.253,0,0,1,.446,2.768A7.694,7.694,0,0,1,2.708,276.99Z" transform="translate(92.672 125.289)" fill="#302d2c"/>
    <rect id="長方形_455" data-name="長方形 455" width="7.121" height="27.267" rx="0.292" transform="translate(-64.631 385.018)" fill="#302d2c"/>
    <path id="パス_246" data-name="パス 246" d="M-54.426,280.809a19.7,19.7,0,0,0-2.494-4.234,7.633,7.633,0,0,0-1.464-1.381.5.5,0,0,1-.212-.464.464.464,0,0,1,.286-.381,7.1,7.1,0,0,0,1.377-.746,6.4,6.4,0,0,0,1.677-2.075,7.087,7.087,0,0,0,.794-3.484,8.63,8.63,0,0,0-.95-3.73,8.27,8.27,0,0,0-3.1-3.335,10.138,10.138,0,0,0-5.518-1.373H-75.86a2.068,2.068,0,0,0-2.064,2.069v24a1.071,1.071,0,0,0,1.069,1.073h5.631a1.073,1.073,0,0,0,1.069-1.073V266.418a.978.978,0,0,1,.921-.98c1.554-.089,4.325-.123,5.437.571a2.814,2.814,0,0,1,1.437,2.5,2.709,2.709,0,0,1-1.569,2.369,5.629,5.629,0,0,1-2.159.655.985.985,0,0,0-.843.956l.018,3.2a1.179,1.179,0,0,0,.595.95,5.044,5.044,0,0,1,1.571,1.441,20,20,0,0,1,2.1,3.845l1.853,4.189a1.072,1.072,0,0,0,.976.637h5.552a1.653,1.653,0,0,0,1.4-.766,1.652,1.652,0,0,0,.1-1.595Z" transform="translate(32.619 125.411)" fill="#302d2c"/>
    <path id="パス_247" data-name="パス 247" d="M-34.02,280.4a14.366,14.366,0,0,0,1.75-6.988,14.831,14.831,0,0,0-.976-5.337,12.754,12.754,0,0,0-2.875-4.443,13.425,13.425,0,0,0-4.835-3.026,18.874,18.874,0,0,0-6.689-1.115,17.236,17.236,0,0,0-8.5,1.95,12.615,12.615,0,0,0-5.171,5.131A14.5,14.5,0,0,0-63,273.409a14.427,14.427,0,0,0,1.694,6.831,12.758,12.758,0,0,0,5.167,5.151,17.144,17.144,0,0,0,8.5,1.958,17.508,17.508,0,0,0,8.417-1.879A12.69,12.69,0,0,0-34.02,280.4Zm-7.449-3.407a5.9,5.9,0,0,1-2.379,2.439,7.66,7.66,0,0,1-3.8.883,6.835,6.835,0,0,1-5.1-1.911,6.851,6.851,0,0,1-1.867-4.992,6.854,6.854,0,0,1,1.857-4.986,6.848,6.848,0,0,1,5.111-1.9,8.233,8.233,0,0,1,3,.512,6.319,6.319,0,0,1,2.2,1.435,5.935,5.935,0,0,1,1.343,2.169,8.253,8.253,0,0,1,.446,2.768A7.694,7.694,0,0,1-41.469,276.99Z" transform="translate(47.782 125.289)" fill="#302d2c"/>
    <path id="パス_248" data-name="パス 248" d="M-44.913,279.882a9.059,9.059,0,0,0-3.27-2.044,12.675,12.675,0,0,0-4.518-.756,11.717,11.717,0,0,0-5.75,1.316,8.566,8.566,0,0,0-3.494,3.47,9.791,9.791,0,0,0-1.137,4.627,9.789,9.789,0,0,0,1.141,4.617,8.657,8.657,0,0,0,3.5,3.484,11.6,11.6,0,0,0,5.742,1.323,11.825,11.825,0,0,0,5.687-1.27,8.593,8.593,0,0,0,3.524-3.429,9.712,9.712,0,0,0,1.181-4.724,9.973,9.973,0,0,0-.661-3.607A8.687,8.687,0,0,0-44.913,279.882Zm-3.633,9.022a3.96,3.96,0,0,1-1.6,1.641,5.146,5.146,0,0,1-2.554.595,4.6,4.6,0,0,1-3.435-1.286,4.625,4.625,0,0,1-1.256-3.359,4.6,4.6,0,0,1,1.252-3.355,4.608,4.608,0,0,1,3.439-1.278,5.458,5.458,0,0,1,2.02.345,4.182,4.182,0,0,1,1.478.966,3.953,3.953,0,0,1,.9,1.46A5.513,5.513,0,0,1-48,286.5,5.193,5.193,0,0,1-48.546,288.9Z" transform="translate(47.7 143.166)" fill="#302d2c"/>
    <path id="パス_249" data-name="パス 249" d="M-31.851,277.207h-17.3a.815.815,0,0,0-.815.817v2.9a.817.817,0,0,0,.815.816h5.139a.727.727,0,0,1,.726.728v12.274a.816.816,0,0,0,.817.816h3.941a.815.815,0,0,0,.815-.816V282.463a.729.729,0,0,1,.728-.728h5.139a.818.818,0,0,0,.815-.816v-2.9A.817.817,0,0,0-31.851,277.207Z" transform="translate(61.023 143.293)" fill="#302d2c"/>
    <path id="パス_250" data-name="パス 250" d="M-24.63,277.693a.815.815,0,0,0-.746-.486h-5.07a.812.812,0,0,0-.744.486l-7.379,16.715a.813.813,0,0,0,.06.774.81.81,0,0,0,.683.371H-33.9a.812.812,0,0,0,.754-.506l1.206-2.952a.389.389,0,0,1,.361-.244h7.331a.39.39,0,0,1,.363.246l1.181,2.945a.81.81,0,0,0,.756.51h3.927a.812.812,0,0,0,.681-.369.812.812,0,0,0,.063-.776Zm-.905,10.726a.384.384,0,0,1-.321.171h-4.079a.391.391,0,0,1-.325-.173.386.386,0,0,1-.036-.365l2.048-5.068a.385.385,0,0,1,.361-.244h0a.384.384,0,0,1,.359.246l2.03,5.066A.391.391,0,0,1-25.535,288.419Z" transform="translate(72.535 143.293)" fill="#302d2c"/>
    <path id="パス_251" data-name="パス 251" d="M-1.9,196.713a30.238,30.238,0,0,0,30.209-30.266A30.237,30.237,0,0,0-1.9,136.184a30.236,30.236,0,0,0-30.209,30.264A30.237,30.237,0,0,0-1.9,196.713Zm0-41.183A10.916,10.916,0,0,1,9.015,166.448,10.918,10.918,0,0,1-1.9,177.367a10.92,10.92,0,0,1-10.919-10.919A10.918,10.918,0,0,1-1.9,155.53Z" transform="translate(79.169 0)" fill="#302d2c"/>
  </g>
</svg>
