<svg xmlns="http://www.w3.org/2000/svg" width="64.859" height="64.859" viewBox="0 0 64.859 64.859">
  <path id="パス_40" data-name="パス 40" d="M32.43,5.765c8.648,0,9.729,0,12.972.36a16.713,16.713,0,0,1,6.126,1.081,12.655,12.655,0,0,1,6.126,6.126,16.713,16.713,0,0,1,1.081,6.126c0,3.243.36,4.324.36,12.972s0,9.729-.36,12.972a16.713,16.713,0,0,1-1.081,6.126,12.655,12.655,0,0,1-6.126,6.126A16.713,16.713,0,0,1,45.4,58.734c-3.243,0-4.324.36-12.972.36s-9.729,0-12.972-.36a16.713,16.713,0,0,1-6.126-1.081,12.655,12.655,0,0,1-6.126-6.126A16.713,16.713,0,0,1,6.126,45.4c0-3.243-.36-4.324-.36-12.972s0-9.729.36-12.972a16.713,16.713,0,0,1,1.081-6.126,12.941,12.941,0,0,1,2.522-3.6,6.092,6.092,0,0,1,3.6-2.522,16.713,16.713,0,0,1,6.126-1.081c3.243-.36,4.324-.36,12.972-.36M32.43,0C23.782,0,22.34,0,19.1.36A22.245,22.245,0,0,0,11.17,1.8,14.106,14.106,0,0,0,5.4,5.4,14.106,14.106,0,0,0,1.8,11.17C.721,13.332.36,15.494.36,19.1,0,22.34,0,23.782,0,32.43S0,42.519.36,45.762A22.245,22.245,0,0,0,1.8,53.689a14.106,14.106,0,0,0,3.6,5.765,14.106,14.106,0,0,0,5.765,3.6A22.245,22.245,0,0,0,19.1,64.5c3.243.36,4.684.36,13.332.36s10.089,0,13.332-.36a22.246,22.246,0,0,0,7.927-1.441,15.118,15.118,0,0,0,9.369-9.369A22.245,22.245,0,0,0,64.5,45.762c0-3.6.36-4.684.36-13.332s0-10.089-.36-13.332a22.246,22.246,0,0,0-1.441-7.927,14.106,14.106,0,0,0-3.6-5.765,14.106,14.106,0,0,0-5.765-3.6A22.245,22.245,0,0,0,45.762.36C42.519,0,41.078,0,32.43,0m0,15.855A16.308,16.308,0,0,0,15.855,32.43,16.575,16.575,0,1,0,32.43,15.855m0,27.385A10.617,10.617,0,0,1,21.62,32.43,10.617,10.617,0,0,1,32.43,21.62,10.617,10.617,0,0,1,43.24,32.43,10.617,10.617,0,0,1,32.43,43.24m17.3-32.069a3.964,3.964,0,1,0,3.964,3.964,4,4,0,0,0-3.964-3.964" fill="#3e3a39" fill-rule="evenodd"/>
</svg>
