<svg xmlns="http://www.w3.org/2000/svg" width="79.168" height="64.214" viewBox="0 0 79.168 64.214">
  <path id="パス_39" data-name="パス 39" d="M63.07,66.214c29.908,0,46.181-24.63,46.181-46.181v-2.2a35.752,35.752,0,0,0,7.917-8.357,36.511,36.511,0,0,1-9.236,2.639,17.112,17.112,0,0,0,7.037-8.8,40.342,40.342,0,0,1-10.116,3.958A15.707,15.707,0,0,0,92.978,2,16.524,16.524,0,0,0,76.7,18.273a8.575,8.575,0,0,0,.44,3.519c-13.634-.88-25.51-7.037-33.426-17.153A16.844,16.844,0,0,0,41.519,13,17.475,17.475,0,0,0,48.556,26.63a14.827,14.827,0,0,1-7.477-2.2h0A16.074,16.074,0,0,0,54.273,40.264a13.559,13.559,0,0,1-4.4.44,7.485,7.485,0,0,1-3.079-.44c2.2,6.6,7.917,11,15.394,11.435a33.207,33.207,0,0,1-20.232,7.037A12.177,12.177,0,0,1,38,58.3a41.514,41.514,0,0,0,25.07,7.917" transform="translate(-38 -2)" fill="#3e3a39" fill-rule="evenodd"/>
</svg>
