<svg xmlns="http://www.w3.org/2000/svg" width="1324.51" height="780.478" viewBox="0 0 1324.51 780.478">
  <g id="グループ_1223" data-name="グループ 1223" transform="translate(-28.019 -14.082)">
    <path id="パス_264" data-name="パス 264" d="M460.765,483.187c-11.625-11.614-27.951-16.781-45.682-16.781s-35.019,4.206-46.633,15.82-19.622,28.912-19.622,46.633,8.99,34.037,20.6,45.651,27.93,16.109,45.651,16.109,32.032-6.479,43.646-18.1,22.6-25.926,22.6-43.657S472.38,494.8,460.765,483.187Zm-46.116,76.041a29.1,29.1,0,1,1,29.1-29.1A29.1,29.1,0,0,1,414.649,559.228Z" transform="translate(-256.892 -386.535)" fill="#5eaca7"/>
    <path id="パス_265" data-name="パス 265" d="M513.747,483.157Q494.59,464,465.855,464c-17.56,0-35.12,4.789-47.892,17.56S402,511.892,402,531.048c0,17.56,4.789,31.928,17.56,44.7S448.3,596.5,465.855,596.5c19.157,0,35.121-7.982,47.892-19.157,11.175-12.771,20.753-28.735,20.753-46.3C534.5,511.892,524.922,494.331,513.747,483.157Zm-46.3,76.626c-15.964,0-30.331-12.771-30.331-28.735a30.311,30.311,0,0,1,30.331-30.331c17.56,0,30.331,12.771,30.331,30.331C497.783,547.012,485.012,559.783,467.452,559.783Z" transform="translate(-55.439 -304.285)" fill="#e4bdbe"/>
    <path id="パス_278" data-name="パス 278" d="M463.208,567.96c5.953,10.3,17,16.452,27.272,22.381,9.955,5.756,20.676,8.3,33.028,8.3,12.327,0,25.2,1.21,35.152-4.57,10.276-5.953,16.081-17.638,22.01-27.914,5.756-9.955,8.374-20.676,8.374-33s.618-24.9-5.138-34.88c-5.953-10.276-15.686-18.848-25.963-24.8-9.955-5.756-22.109-5.83-34.436-5.83-12.351,0-25.073-.914-35.028,4.842A72.711,72.711,0,0,0,462.788,498.1c-5.756,9.955-6.225,22.727-6.225,35.053S457.427,558,463.208,567.96Zm60.942-64.227a32.5,32.5,0,1,1-32.484,32.484A32.5,32.5,0,0,1,524.149,503.733Z" transform="translate(404.52 -294.637)" fill="#b63827"/>
    <path id="パス_279" data-name="パス 279" d="M622.636,574.872c-12.1,12.1-27.478,19.647-45.944,19.647s-35.985-5.413-48.087-17.52-17.465-29.611-17.465-48.081,5.474-35.87,17.575-47.971,29.5-16.454,47.977-16.454,33.469,6.749,45.57,18.85,21.378,27.1,21.378,45.575S634.749,562.771,622.636,574.872Zm-45.944-79.1a30.311,30.311,0,1,0,30.314,30.308A30.305,30.305,0,0,0,576.693,495.768Z" transform="translate(111.74 -450.41)" fill="#c49917"/>
    <path id="パス_283" data-name="パス 283" d="M512.766,533.505C500.08,522.229,483.165,518,466.25,518c-18.324,0-33.83,5.638-45.106,19.734C409.867,549.011,400,563.106,400,580.021c0,19.734,5.638,36.649,18.324,49.335,11.277,11.277,29.6,19.734,47.925,19.734,16.915,0,35.239-8.458,46.516-19.734,11.277-12.686,19.734-29.6,19.734-49.335C532.5,563.106,524.042,547.6,512.766,533.505Zm-50.745,77.527c-16.915,0-31.011-12.686-31.011-29.6s14.1-28.191,31.011-28.191,29.6,11.277,29.6,28.191S478.936,611.032,462.021,611.032Z" transform="translate(420.896 85.834)" fill="#c0ab86"/>
    <path id="パス_280" data-name="パス 280" d="M360.593,549.911a60.617,60.617,0,0,1,23.595-22.671c9.488-5.71,19.648-9.74,31.4-9.74,11.839,0,21.915,4.2,31.4,9.908,9.824,5.71,18.557,12.259,24.35,22.167,5.542,9.572,9.4,20.32,9.4,32.075a64.707,64.707,0,0,1-8.733,32.579c-5.794,9.908-12.847,19.984-22.755,25.862-9.572,5.374-21.831,6.549-33.671,6.549-11.755,0-23.511-1.847-33.167-7.389-9.824-5.878-16.877-15.618-22.587-25.19-5.542-9.74-11.587-20.488-11.587-32.411C348.25,569.9,355.051,559.484,360.593,549.911ZM414.5,614.4a29.556,29.556,0,1,0-29.556-29.556A29.546,29.546,0,0,0,414.5,614.4Z" transform="translate(-320.231 -188.711)" fill="#27231d"/>
    <path id="パス_281" data-name="パス 281" d="M476.17,671.509c-5.941,10.257-17,16.412-27.282,22.38-9.964,5.755-20.674,8.286-33.023,8.286s-25.217,1.2-35.181-4.556c-10.271-5.941-16.065-17.664-22.007-27.921-5.768-9.964-8.352-20.674-8.352-33.01s-.639-24.911,5.129-34.875c5.941-10.311,15.679-18.889,25.95-24.831,9.964-5.755,22.126-5.835,34.462-5.835s25.07-.906,35.035,4.875a72.676,72.676,0,0,1,25.7,25.6c5.768,9.964,6.208,22.726,6.208,35.061S481.951,661.518,476.17,671.509Zm-56.322-67.352a32.53,32.53,0,1,0,32.517,32.557A32.553,32.553,0,0,0,419.848,604.157Z" transform="translate(-114.041 -98.387)" fill="#7d9c27"/>
    <path id="パス_284" data-name="パス 284" d="M517.487,586.137c-12.139-12.132-29.8-16.559-48.323-16.559s-35.538,5.074-47.677,17.213S403.9,615.947,403.9,634.468s4.014,36.974,16.16,49.113a71.539,71.539,0,0,0,49.105,20.354c18.521,0,33.779-11.41,45.926-23.542C527.221,668.254,536.4,653,536.4,634.468S529.626,598.283,517.487,586.137Zm-48.8,81.027a30.4,30.4,0,1,1,30.4-30.4A30.4,30.4,0,0,1,468.683,667.164Z" transform="translate(-334.039 90.625)" fill="#d9e8ed"/>
    <path id="パス_286" data-name="パス 286" d="M20.49,17.758C31.418,5.464,49.175,0,66.933,0s35.515,5.464,46.443,17.758C125.67,28.686,132.5,46.443,132.5,64.2s-9.562,32.783-21.856,45.077C99.716,120.206,84.691,128.4,66.933,128.4A70.039,70.039,0,0,1,20.49,110.644C8.2,98.35,0,81.959,0,64.2S8.2,28.686,20.49,17.758ZM69.665,92.887c15.026,0,28.686-13.66,28.686-28.686S84.691,35.515,69.665,35.515a28.686,28.686,0,0,0,0,57.371Z" transform="translate(451.649 640.548)" fill="#29381e"/>
    <path id="パス_282" data-name="パス 282" d="M566.786,632.2c-11.845,11.869-28.677,16.568-46.78,16.568S487.3,641.865,475.432,630s-20.213-26.471-20.213-44.574,5.611-35.439,17.48-47.308c11.869-11.845,29.2-20.333,47.308-20.333s35.271,8.656,47.14,20.525c11.869,11.845,20.573,29.013,20.573,47.116S578.655,620.333,566.786,632.2Zm-50.569-77.328a29.72,29.72,0,1,0,29.708,29.708A29.7,29.7,0,0,0,516.218,554.875Z" transform="translate(628.629 -158.152)" fill="#25584c"/>
    <path id="パス_285" data-name="パス 285" d="M532.153,588.752c12.11-12.1,27.487-19.643,45.958-19.643s35.972,5.409,48.081,17.519,17.464,29.61,17.464,48.081-5.474,35.871-17.574,47.971-29.51,16.457-47.971,16.457-33.482-6.755-45.582-18.865-21.372-27.1-21.372-45.564S520.053,600.852,532.153,588.752Zm45.958,78.35A30.315,30.315,0,1,0,547.8,636.787,30.317,30.317,0,0,0,578.111,667.1Z" transform="translate(671.536 48.953)" fill="#778c92"/>
    <path id="パス_287" data-name="パス 287" d="M624.749,633.813c-12.151,11.958-29.123,18.13-47.638,18.13s-36.066-5.593-48.41-17.937c-12.151-12.151-16.2-29.7-16.2-48.217,0-18.322,4.05-36.066,16.008-48.41,12.151-12.151,30.087-18.13,48.6-18.13s37.031,5.207,48.988,17.551c12.344,11.958,18.9,30.666,18.9,48.988C645,604.3,636.707,621.47,624.749,633.813Zm-45.324-77.533a33.271,33.271,0,1,0,33.559,33.366A33.337,33.337,0,0,0,579.425,556.281Z" transform="translate(707.528 -427.301)" fill="#d37024"/>
  </g>
</svg>
