<svg xmlns="http://www.w3.org/2000/svg" width="56.141" height="45.537" viewBox="0 0 56.141 45.537">
  <path id="パス_39" data-name="パス 39" d="M55.778,47.537c21.209,0,32.749-17.466,32.749-32.749V13.228A25.353,25.353,0,0,0,94.141,7.3a25.892,25.892,0,0,1-6.55,1.871,12.135,12.135,0,0,0,4.99-6.238,28.608,28.608,0,0,1-7.174,2.807A11.139,11.139,0,0,0,76.987,2a11.718,11.718,0,0,0-11.54,11.54,6.081,6.081,0,0,0,.312,2.5,32.246,32.246,0,0,1-23.7-12.164A11.944,11.944,0,0,0,40.5,9.8a12.392,12.392,0,0,0,4.99,9.669,10.514,10.514,0,0,1-5.3-1.559h0A11.4,11.4,0,0,0,49.54,29.135a9.615,9.615,0,0,1-3.119.312,5.308,5.308,0,0,1-2.183-.312,11.816,11.816,0,0,0,10.916,8.109,23.549,23.549,0,0,1-14.347,4.99A8.635,8.635,0,0,1,38,41.923a29.439,29.439,0,0,0,17.778,5.614" transform="translate(-38 -2)" fill="#f4f4f4" fill-rule="evenodd"/>
</svg>
