<svg xmlns="http://www.w3.org/2000/svg" width="136.252" height="134.698" viewBox="0 0 136.252 134.698">
  <path id="パス_282" data-name="パス 282" d="M569.945,635.442c-12.18,12.2-29.489,17.038-48.1,17.038s-33.631-7.1-45.836-19.306-20.785-27.221-20.785-45.836,5.77-36.442,17.975-48.647c12.2-12.18,30.032-20.909,48.647-20.909s36.27,8.9,48.474,21.106c12.205,12.18,21.155,29.834,21.155,48.45S582.15,623.237,569.945,635.442Zm-52-79.517a30.562,30.562,0,1,0,30.549,30.549A30.542,30.542,0,0,0,517.945,555.925Z" transform="translate(-455.219 -517.781)" fill="#25584c"/>
</svg>
