<svg xmlns="http://www.w3.org/2000/svg" width="133.51" height="135.381" viewBox="0 0 133.51 135.381">
  <path id="パス_284" data-name="パス 284" d="M518.353,586.263c-12.232-12.224-30.03-16.685-48.692-16.685s-35.809,5.112-48.04,17.344S403.9,616.3,403.9,634.962s4.044,37.255,16.284,49.487a72.084,72.084,0,0,0,49.479,20.51c18.662,0,34.036-11.5,46.276-23.721,12.224-12.232,21.472-27.606,21.472-46.276S530.585,598.5,518.353,586.263Zm-49.176,81.645a30.632,30.632,0,1,1,30.636-30.636A30.636,30.636,0,0,1,469.177,667.908Z" transform="translate(-403.898 -569.578)" fill="#d9e8ed"/>
</svg>
